<svg width="58" height="58" viewBox="0 0 58 58" fill="none" xmlns="http://www.w3.org/2000/svg">
<path d="M23.7733 34.3512C23.7733 31.9868 22.28 29.3734 19.4178 28.2534C16.5556 27.1334 13.6933 28.129 12.0756 29.6223C9.33778 32.1112 9.21333 36.3423 11.5778 38.8312C11.7022 38.9557 11.7022 39.2045 11.8267 39.329C11.5778 39.8268 11.2044 40.2001 10.8311 40.5734C7.96889 43.4357 5.10667 46.4223 2.12 49.2845C1.74667 49.6579 1.37333 50.1557 1 50.529" stroke="#00AEEF" stroke-width="1.5" stroke-miterlimit="10" stroke-linecap="round" stroke-linejoin="round"/>
<path d="M57 7.47101C54.76 10.0843 52.1466 12.1999 49.9066 14.6888C48.6622 15.9332 47.2933 17.0532 46.2977 18.671C48.6622 21.9066 49.16 25.2666 46.0489 28.3777C44.3066 30.1199 41.32 30.8666 38.8311 29.871C35.8444 28.6266 34.3511 26.3866 34.3511 23.6488" stroke="#00AEEF" stroke-width="1.5" stroke-miterlimit="10" stroke-linecap="round" stroke-linejoin="round"/>
<path d="M8.09351 56.9998C10.5824 54.5109 13.0713 52.0221 15.5602 49.6576C16.8046 48.4132 17.9246 47.2932 19.1691 46.0487C20.2891 46.5465 21.1602 47.1687 22.4046 47.5421C25.2668 48.2887 28.7513 46.9198 30.2446 44.3065C31.738 41.8176 31.1157 37.9598 29.0002 36.0932C28.8757 35.9687 28.7513 36.0932 28.5024 36.0932" stroke="#00AEEF" stroke-width="1.5" stroke-miterlimit="10" stroke-linecap="round" stroke-linejoin="round"/>
<path d="M49.9069 1C46.9202 3.86222 44.058 6.84889 41.1958 9.71111C40.4491 10.4578 39.9513 11.2044 39.3291 11.9511C37.9602 11.3289 36.9647 10.7067 35.8447 10.3333C32.9824 9.58667 29.498 10.9556 28.0047 13.5689C26.5113 16.0578 27.1335 19.9156 29.2491 21.7822C29.3735 21.9067 29.498 21.7822 29.7469 21.7822" stroke="#00AEEF" stroke-width="1.5" stroke-miterlimit="10" stroke-linecap="round" stroke-linejoin="round"/>
<path d="M26.884 26.8845C29.6218 29.3734 32.3596 31.8623 35.0974 34.4756C35.4707 34.849 35.9685 35.0979 35.844 35.8445" stroke="#00AEEF" stroke-width="1.5" stroke-miterlimit="10" stroke-linecap="round" stroke-linejoin="round"/>
<path d="M20.4136 20.6623C21.1602 21.4089 22.0314 22.1556 22.778 22.9023" stroke="#00AEEF" stroke-width="1.5" stroke-miterlimit="10" stroke-linecap="round" stroke-linejoin="round"/>
<path d="M10.5825 10.7068C11.9514 12.2001 13.3203 13.6934 14.6892 15.1868" stroke="#00AEEF" stroke-width="1.5" stroke-miterlimit="10" stroke-linecap="round" stroke-linejoin="round"/>
<path d="M17.178 8.34207C17.5513 9.33763 17.8002 10.3332 18.1735 11.3287" stroke="#00AEEF" stroke-width="1.5" stroke-miterlimit="10" stroke-linecap="round" stroke-linejoin="round"/>
<path d="M8.09351 17.0531C9.08906 17.4265 10.2091 17.6754 11.2046 18.0487" stroke="#00AEEF" stroke-width="1.5" stroke-miterlimit="10" stroke-linecap="round" stroke-linejoin="round"/>
<path d="M46.2983 45.1778C44.805 43.8089 43.1872 42.5645 41.6938 41.1956" stroke="#00AEEF" stroke-width="1.5" stroke-miterlimit="10" stroke-linecap="round" stroke-linejoin="round"/>
<path d="M48.7866 38.8313C47.7911 38.4579 46.6711 38.209 45.6755 37.8357" stroke="#00AEEF" stroke-width="1.5" stroke-miterlimit="10" stroke-linecap="round" stroke-linejoin="round"/>
<path d="M39.7021 47.5421C39.3288 46.5465 39.0799 45.551 38.7065 44.5554" stroke="#00AEEF" stroke-width="1.5" stroke-miterlimit="10" stroke-linecap="round" stroke-linejoin="round"/>
</svg>
