<svg width="82" height="82" viewBox="0 0 82 82" fill="none" xmlns="http://www.w3.org/2000/svg">
<path d="M54.7411 11.2401C54.7411 11.2401 42.6039 4.52012 21.8429 12.2001C15.7743 14.4401 10.3445 17.9601 6.19231 22.7601C0.762504 29.1601 -3.3897 38.4401 9.70571 45.1601C12.5803 46.7601 15.7743 47.4001 18.6489 47.4001C18.6489 47.4001 17.3713 36.8401 33.6607 37.8001" stroke="#00AEEF" stroke-width="1.5" stroke-miterlimit="10" stroke-linecap="round" stroke-linejoin="round"/>
<path d="M66.8793 18.6C72.9479 24.68 86.3627 40.04 78.6971 51.88C76.1419 55.72 71.6703 57.96 67.1987 57.96H20.8857L18.6499 47.4" stroke="#00AEEF" stroke-width="1.5" stroke-miterlimit="10" stroke-linecap="round" stroke-linejoin="round"/>
<path d="M12.261 17.3199L13.858 20.8399C14.8162 22.7599 14.4968 25.3199 13.5386 27.2399L12.261 29.4799" stroke="#00AEEF" stroke-width="1.5" stroke-miterlimit="10" stroke-linecap="round" stroke-linejoin="round"/>
<path d="M29.5099 31.72L28.5517 29.48C27.9129 27.24 25.9965 25.64 23.7607 25.32L15.4563 24.04" stroke="#00AEEF" stroke-width="1.5" stroke-miterlimit="10" stroke-linecap="round" stroke-linejoin="round"/>
<path d="M35.8973 8.68005C35.8973 8.68005 30.1481 14.1201 31.1063 21.4801" stroke="#00AEEF" stroke-width="1.5" stroke-miterlimit="10" stroke-linecap="round" stroke-linejoin="round"/>
<path d="M75.8214 29.8L73.5856 31.4C72.308 32.36 71.3498 33.96 71.0304 35.56C71.0304 36.2 70.711 36.52 70.0722 36.84L63.0454 41" stroke="#00AEEF" stroke-width="1.5" stroke-miterlimit="10" stroke-linecap="round" stroke-linejoin="round"/>
<path d="M19.9265 53.1599C19.9265 53.1599 21.2041 48.3599 33.0219 49.3199" stroke="#00AEEF" stroke-width="1.5" stroke-miterlimit="10" stroke-linecap="round" stroke-linejoin="round"/>
<path d="M59.8516 58.28V50.6L65.6008 47.4" stroke="#00AEEF" stroke-width="1.5" stroke-miterlimit="10" stroke-linecap="round" stroke-linejoin="round"/>
<path d="M37.814 58.28L48.993 81H55.7004L54.7422 68.52" stroke="#00AEEF" stroke-width="1.5" stroke-miterlimit="10" stroke-linecap="round" stroke-linejoin="round"/>
<path d="M48.0327 58.28C48.0327 64.36 52.5043 69.16 58.2535 69.16H59.8505C65.5997 69.16 70.0713 64.36 70.0713 58.28" stroke="#00AEEF" stroke-width="1.5" stroke-miterlimit="10" stroke-linecap="round" stroke-linejoin="round"/>
<path d="M69.7528 1L53.144 18.6L63.6842 26.6L48.353 41.96" stroke="#00AEEF" stroke-width="1.5" stroke-miterlimit="10" stroke-linecap="round" stroke-linejoin="round"/>
</svg>
