<svg width="120" height="120" viewBox="0 0 120 120" fill="none" xmlns="http://www.w3.org/2000/svg">
<g opacity="0.05">
<path d="M55.4508 80.8218C53.0535 82.4314 50.5954 82.7452 48.1981 80.8927C45.821 79.0604 45.5984 76.5498 46.5189 73.4724C43.4034 74.1506 40.6014 74.1304 38.7604 71.3566C37.1824 68.9777 37.5668 66.6494 39.1246 64.402C39.3168 64.2097 39.509 64.0275 39.7012 63.8351C40.8138 63.0354 42.1086 62.2559 43.4034 62.5191C45.7704 62.9949 45.3354 61.9016 45.4669 60.2313C45.6389 57.9232 45.3961 56.9817 42.8167 57.3563C41.8759 57.4879 40.7936 56.6578 39.7821 56.263C39.5089 55.9897 39.2358 55.7163 38.9627 55.4531C37.5971 53.1552 37.1723 50.8167 38.8312 48.4985C40.6722 45.9272 43.2719 45.7045 46.4683 46.5549C45.6591 43.4066 45.7805 40.6429 48.542 38.8106C50.909 37.2517 53.2355 37.6364 55.4609 39.1852C55.6531 39.3775 55.8352 39.5699 56.0274 39.7622C56.4826 40.8859 57.4638 42.0906 57.2918 43.1029C56.8366 45.8361 58.1314 45.3401 60.023 45.4919C62.2989 45.6742 62.4911 45.0566 62.4304 43.113C62.39 42.0096 63.2599 40.8859 63.7151 39.7622C63.9174 39.5598 64.1197 39.3472 64.322 39.1447C66.7092 37.4643 69.1673 37.1808 71.5646 39.003C73.9518 40.8252 74.2351 43.3155 73.3146 46.3727C76.3492 45.8463 79.1815 45.7146 81.0427 48.5188C82.6207 50.8977 82.2566 53.226 80.7595 55.4936C80.5268 55.7265 80.2942 55.9492 80.0717 56.182C78.9387 56.6274 77.7552 57.5385 76.683 57.417C74.3666 57.1538 74.3969 57.9738 74.4272 59.9377C74.4576 61.8408 74.3463 62.752 76.6931 62.4887C77.7653 62.3673 78.9488 63.2885 80.0717 63.7339C80.3043 63.9667 80.5369 64.1995 80.7797 64.4324C82.3779 66.8214 82.6915 69.2814 80.8606 71.6603C79.0399 74.019 76.5919 74.3936 73.5067 73.3813C74.1339 76.5599 74.0328 79.4552 71.0993 81.2773C68.8436 82.6743 66.6182 82.2897 64.4737 80.923C64.1804 80.6295 63.8972 80.3359 63.6038 80.0524C62.4709 78.372 62.1775 76.4992 62.4911 74.5454C59.2643 74.181 56.5837 74.2721 56.9175 78.5542C56.958 79.0705 56.3915 79.6273 56.0982 80.1638C55.8756 80.3966 55.6632 80.6092 55.4508 80.8218ZM70.9071 70.9719C69.056 69.8483 72.9403 66.3153 68.8132 66.295C66.7092 66.2849 66.2136 67.0037 66.2338 68.9574C66.2641 73.0573 69.7438 69.1801 70.9071 70.9719ZM49.0073 71.0226C50.1503 69.4737 54.2673 73.1484 53.5491 68.1071C52.9725 64.0983 50.4336 67.2568 49.0275 66.2242C49.6041 67.8945 48.9972 69.2915 49.0073 71.0226ZM71.0487 49.0452C66.163 49.5513 66.2844 49.5716 66.1427 50.7054C65.6673 54.6433 68.6412 53.307 70.9476 53.9245C70.2597 52.0922 70.7958 50.594 71.0487 49.0452ZM48.9668 48.8326C49.24 50.6143 49.4119 52.1429 49.1388 53.8638C50.4841 52.6591 53.185 55.6354 53.6401 51.6671C54.1965 46.7573 50.0593 50.6548 48.9668 48.8326ZM58.0302 59.6745C58.1111 60.7172 57.3221 62.2154 59.4565 61.7902C60.5388 61.5777 61.9348 62.347 61.7527 60.0997C61.6313 58.5711 61.5504 57.9738 59.8004 58.0852C58.4854 58.1662 57.5447 58.0346 58.0302 59.6745Z" fill="#2D388A"/>
<path d="M56.048 39.7622C55.8559 39.5699 55.6738 39.3775 55.4816 39.1852C55.4512 38.9422 55.4816 38.6689 55.3906 38.4563C54.1464 35.713 54.1059 33.1214 56.655 31.117C58.7286 29.4872 61.0653 29.4771 63.149 31.0968C65.7082 33.0809 65.6779 35.6826 64.464 38.4259C64.373 38.6385 64.3932 38.9119 64.3629 39.1548C64.1606 39.3573 63.9583 39.5699 63.756 39.7723C61.1765 40.815 58.6072 40.7948 56.048 39.7622Z" fill="#2D388A"/>
<path d="M80.7818 64.4427C80.5491 64.2098 80.3165 63.977 80.0737 63.7442C78.9914 61.2235 79.0116 58.713 80.0737 56.1923C80.3064 55.9595 80.539 55.7367 80.7616 55.5039C81.5809 55.2508 82.38 54.937 83.2196 54.775C85.5967 54.3195 87.64 54.8965 89.0056 57.0123C90.2498 58.9458 90.2498 60.9805 89.0157 62.9141C87.6603 65.0298 85.6068 65.6169 83.2297 65.1614C82.4003 65.0197 81.6011 64.6957 80.7818 64.4427Z" fill="#2D388A"/>
<path d="M63.5913 80.0627C63.8847 80.3563 64.1679 80.6498 64.4612 80.9333C64.6231 81.5204 64.7849 82.1177 64.9367 82.7048C65.6043 85.2154 65.1997 87.4526 62.9743 89.0015C60.931 90.4187 58.7258 90.3883 56.7129 88.9205C54.5279 87.321 54.1739 85.0736 54.9123 82.5833C55.0843 81.9962 55.2765 81.4091 55.4484 80.8219C55.6609 80.6093 55.8733 80.3866 56.0857 80.1741C58.5741 79.1212 61.0827 79.1516 63.5913 80.0627Z" fill="#2D388A"/>
<path d="M39.7116 63.8349C39.5194 64.0272 39.3272 64.2095 39.135 64.4018C36.1308 65.3635 33.1164 66.224 30.8809 62.9846C29.576 61.1017 29.5456 59.0467 30.7898 57.103C32.9242 53.7927 35.9487 54.5216 38.9833 55.4327C39.2564 55.706 39.5295 55.9793 39.8026 56.2425C40.7838 58.7936 40.6928 61.3244 39.7116 63.8349Z" fill="#2D388A"/>
<path d="M89.6963 76.3171C89.7569 79.101 87.2483 81.6115 84.4666 81.5609C81.8265 81.5103 79.4696 79.1617 79.4191 76.5094C79.3584 73.7154 81.8568 71.215 84.6487 71.2656C87.2787 71.3264 89.6356 73.675 89.6963 76.3171Z" fill="#2D388A"/>
<path d="M35.3051 81.5207C32.5537 81.5511 30.0755 79.0304 30.1665 76.287C30.2474 73.6651 32.5942 71.3571 35.2141 71.3267C37.9654 71.2963 40.4437 73.817 40.3527 76.5604C40.2819 79.1823 37.925 81.4904 35.3051 81.5207Z" fill="#2D388A"/>
<path d="M48.5819 84.456C48.6931 87.2095 46.2351 89.7504 43.4635 89.7504C40.8436 89.7504 38.4665 87.4423 38.3552 84.8204C38.2439 82.0669 40.702 79.526 43.4736 79.526C46.1036 79.526 48.4807 81.824 48.5819 84.456Z" fill="#2D388A"/>
<path d="M84.2604 48.6607C81.4685 48.4886 79.1622 45.806 79.4455 43.0626C79.7186 40.4103 82.2272 38.244 84.8268 38.4059C87.6187 38.578 89.925 41.2708 89.6418 44.004C89.3788 46.6563 86.8701 48.8227 84.2604 48.6607Z" fill="#2D388A"/>
<path d="M35.0802 38.4364C37.6697 38.3352 40.1277 40.542 40.3402 43.174C40.5627 45.8972 38.2058 48.5292 35.4342 48.6405C32.6929 48.7519 30.154 46.3021 30.1641 43.5385C30.1742 40.9166 32.4603 38.5376 35.0802 38.4364Z" fill="#2D388A"/>
<path d="M81.4579 35.3384C81.4477 38.1223 78.8886 40.5721 76.1271 40.4405C73.4869 40.319 71.2009 37.93 71.211 35.2878C71.2211 32.5039 73.7803 30.0541 76.5418 30.1857C79.1819 30.3072 81.468 32.7064 81.4579 35.3384Z" fill="#2D388A"/>
<path d="M43.4961 30.2159C46.2576 30.226 48.6955 32.777 48.564 35.5204C48.4426 38.1524 46.0553 40.4302 43.4455 40.4099C40.684 40.3998 38.2462 37.8487 38.3676 35.1054C38.4991 32.4835 40.8864 30.1956 43.4961 30.2159Z" fill="#2D388A"/>
<path d="M81.4583 84.5773C81.4988 87.3612 78.98 89.8414 76.2084 89.7705C73.5683 89.6996 71.2418 87.341 71.2114 84.6988C71.171 81.9149 73.6796 79.4347 76.4613 79.5157C79.1014 79.5866 81.4178 81.9352 81.4583 84.5773Z" fill="#2D388A"/>
<path d="M46.9453 92.5645C47.36 89.6693 48.9987 88.1205 51.912 88.1508C54.6937 88.1812 56.7269 90.55 56.3728 93.344C55.9986 96.2696 54.1778 97.7375 51.2949 97.535C48.3513 97.3224 47.0262 95.4193 46.9453 92.5645Z" fill="#2D388A"/>
<path d="M92.7567 72.9764C89.8637 72.7234 88.1744 71.215 88.0328 68.2793C87.9013 65.4853 90.1671 63.2582 92.959 63.4607C95.8722 63.6733 97.5311 65.3841 97.4704 68.2995C97.4199 71.2353 95.6395 72.7335 92.7567 72.9764Z" fill="#2D388A"/>
<path d="M31.7618 68.1478C31.5393 71.0431 30.0725 72.8247 27.0986 72.845C24.155 72.8652 22.4354 71.205 22.3949 68.2491C22.3646 65.3032 24.0336 63.5924 26.9772 63.5418C29.9511 63.5013 31.4786 65.2425 31.7618 68.1478Z" fill="#2D388A"/>
<path d="M72.9018 92.8074C72.6894 95.6723 71.2226 97.4843 68.2892 97.5754C65.386 97.6564 63.6462 96.0367 63.3933 93.1112C63.1505 90.3172 65.3557 88.0192 68.1475 88.1204C71.081 88.2318 72.6084 89.9021 72.9018 92.8074Z" fill="#2D388A"/>
<path d="M92.6864 56.5364C89.7833 56.2327 88.1244 54.6839 88.0333 51.7481C87.9524 48.9541 90.2587 46.7574 93.0505 47.0206C95.9638 47.2939 97.5822 49.0351 97.4811 51.9405C97.3698 54.8863 95.5491 56.3339 92.6864 56.5364Z" fill="#2D388A"/>
<path d="M27.2412 47.0407C30.1342 47.395 31.8032 48.9945 31.6919 51.9403C31.5807 54.8963 29.7903 56.5059 26.8669 56.4046C23.9132 56.3034 22.315 54.5116 22.406 51.5759C22.4971 48.5997 24.3381 47.1926 27.2412 47.0407Z" fill="#2D388A"/>
<path d="M56.4432 26.9869C56.1296 30.0745 54.5921 31.8157 51.6283 31.7651C48.6746 31.7145 46.9954 29.9834 47.0359 27.0274C47.0763 24.0715 48.8162 22.4011 51.7597 22.4214C54.7539 22.4416 56.17 24.2841 56.4432 26.9869Z" fill="#2D388A"/>
<path d="M72.8735 27.1484C72.6004 30.0335 71.083 31.7039 68.1496 31.8051C65.3476 31.9063 63.1829 29.6489 63.4156 26.8448C63.6482 23.9293 65.3678 22.3197 68.2709 22.4007C71.2044 22.4817 72.661 24.2735 72.8735 27.1484Z" fill="#2D388A"/>
<path d="M35.3843 97.1911C32.8049 96.8975 31.0853 95.541 31.0246 92.9495C30.974 90.3681 32.5925 88.6876 35.1618 88.6269C37.7412 88.5661 39.4204 90.196 39.4811 92.7673C39.562 95.3588 37.8727 96.7659 35.3843 97.1911Z" fill="#2D388A"/>
<path d="M59.9711 105.431C57.4322 105.127 55.7025 103.771 55.6418 101.169C55.5912 98.5778 57.2299 96.8872 59.7992 96.8163C62.3887 96.7556 64.078 98.3956 64.1488 100.977C64.2297 103.599 62.5405 105.016 59.9711 105.431Z" fill="#2D388A"/>
<path d="M101.287 55.6459C103.583 56.0204 105.151 57.3972 105.292 59.9786C105.414 62.317 102.996 64.5948 100.71 64.2809C98.1913 63.9368 96.7145 62.3677 96.6841 59.7863C96.6437 57.5794 98.8893 55.5851 101.287 55.6459Z" fill="#2D388A"/>
<path d="M23.1461 59.9378C22.7314 62.6002 21.3152 64.2604 18.7358 64.1896C16.1766 64.1187 14.5581 62.4484 14.6188 59.8771C14.6795 57.3159 16.3587 55.7063 18.928 55.757C21.5175 55.8076 22.8123 57.569 23.1461 59.9378Z" fill="#2D388A"/>
<path d="M59.841 14.5457C62.3698 14.8392 64.0895 16.1957 64.1299 18.7873C64.1805 21.3687 62.5519 23.0491 59.9826 23.0997C57.4032 23.1503 55.7342 21.5205 55.6735 18.9492C55.6128 16.3577 57.2919 14.9506 59.841 14.5457Z" fill="#2D388A"/>
<path d="M39.5634 27.0274C39.2801 29.5481 37.9348 31.2488 35.3554 31.3095C32.7861 31.3602 31.117 29.7506 31.0563 27.1894C30.9956 24.6181 32.6141 22.9478 35.1733 22.8871C37.7527 22.8162 39.1588 24.4764 39.5634 27.0274Z" fill="#2D388A"/>
<path d="M88.8966 92.9391C88.4717 95.5002 87.0556 97.1908 84.4559 97.12C81.8765 97.0491 80.2378 95.3585 80.2985 92.767C80.3693 90.1856 82.0586 88.5456 84.6481 88.6064C87.2478 88.657 88.6032 90.3982 88.8966 92.9391Z" fill="#2D388A"/>
<path d="M84.4851 22.7453C87.0241 23.049 88.7538 24.4055 88.8145 27.0071C88.8651 29.5987 87.2264 31.2893 84.647 31.35C82.0574 31.4107 80.3682 29.7607 80.3075 27.1793C80.2265 24.5776 81.9158 23.1604 84.4851 22.7453Z" fill="#2D388A"/>
<path d="M27.0065 80.3256C29.6668 80.7305 31.3258 82.1477 31.255 84.7291C31.1943 87.2903 29.5252 88.91 26.9559 88.8594C24.3967 88.7986 22.7884 87.1283 22.8289 84.557C22.8794 81.9554 24.6294 80.6596 27.0065 80.3256Z" fill="#2D388A"/>
<path d="M92.8282 39.661C90.2892 39.3573 88.5595 37.9907 88.509 35.389C88.4584 32.7975 90.0971 31.1069 92.6866 31.0462C95.2761 30.9854 96.9553 32.6355 97.0261 35.2169C97.0868 37.8388 95.3874 39.2561 92.8282 39.661Z" fill="#2D388A"/>
<path d="M31.3469 35.1867C31.0536 37.7681 29.7082 39.4789 27.1288 39.5295C24.5595 39.5801 22.8905 37.9604 22.8298 35.3993C22.7691 32.828 24.3875 31.1678 26.9467 31.0969C29.5464 31.0261 30.9322 32.7166 31.3469 35.1867Z" fill="#2D388A"/>
<path d="M97.1278 84.7292C96.713 87.2498 95.3272 88.8189 92.7478 88.9404C90.4112 89.0618 88.1453 86.6323 88.4589 84.3343C88.8129 81.8137 90.3909 80.2142 92.9602 80.3458C95.5194 80.4875 96.8546 82.2085 97.1278 84.7292Z" fill="#2D388A"/>
<path d="M101.101 39.58C103.619 39.8432 104.995 41.2301 104.874 43.7508C104.742 46.3018 103.154 47.5773 100.666 47.4255C98.329 47.2837 97.0444 45.8361 97.0747 43.4875C97.1051 40.9466 98.6123 39.7116 101.101 39.58Z" fill="#2D388A"/>
<path d="M101.081 80.4068C98.4515 80.1638 97.0151 78.858 97.0555 76.3575C97.096 73.8571 98.5425 72.4601 101.031 72.4905C103.529 72.5208 104.905 73.9786 104.905 76.4689C104.895 79.0199 103.347 80.1942 101.081 80.4068Z" fill="#2D388A"/>
<path d="M18.6709 80.3362C16.1927 80.0527 14.8372 78.676 14.9788 76.1756C15.1205 73.6448 16.6984 72.3996 19.1666 72.5616C21.4931 72.7135 22.7373 74.1611 22.6868 76.4793C22.6463 79.0202 21.1391 80.2147 18.6709 80.3362Z" fill="#2D388A"/>
<path d="M76.3281 14.94C78.8165 15.1323 80.263 16.4281 80.2124 18.9589C80.1518 21.4998 78.6547 22.8259 76.1562 22.7551C73.8195 22.6842 72.4944 21.3075 72.454 18.969C72.4135 16.4281 73.8398 15.1323 76.3281 14.94Z" fill="#2D388A"/>
<path d="M19.0857 47.456C16.4557 47.3041 14.9688 46.0691 14.9688 43.5383C14.9789 41.0176 16.4051 39.6409 18.9137 39.6713C21.2403 39.6915 22.5856 41.0176 22.6868 43.346C22.7981 45.8869 21.3718 47.1624 19.0857 47.456Z" fill="#2D388A"/>
<path d="M80.307 101.078C80.0137 103.751 78.6076 105.118 76.099 104.976C73.55 104.834 72.2855 103.224 72.4474 100.734C72.5991 98.3856 74.0659 97.1303 76.4025 97.1607C78.9819 97.2113 80.125 98.7804 80.307 101.078Z" fill="#2D388A"/>
<path d="M43.6066 105.026C40.9463 104.804 39.52 103.477 39.6009 100.947C39.6818 98.4058 41.1991 97.0999 43.6976 97.191C46.0343 97.2821 47.3291 98.6791 47.3594 101.018C47.3999 103.599 45.8826 104.793 43.6066 105.026Z" fill="#2D388A"/>
<path d="M47.392 19.0301C47.1088 21.5103 45.7331 22.8668 43.2346 22.7251C40.7057 22.5834 39.4615 21.0042 39.6234 18.5341C39.7751 16.2058 41.2216 14.9606 43.538 15.0113C46.077 15.0517 47.2706 16.5601 47.392 19.0301Z" fill="#2D388A"/>
<path d="M109.168 71.772C106.922 71.3367 105.536 70.1017 105.729 67.9353C105.911 65.8297 107.367 64.5137 109.552 64.7364C111.505 64.9288 112.749 66.2853 112.678 68.2796C112.597 70.456 111.12 71.5088 109.168 71.772Z" fill="#2D388A"/>
<path d="M10.6322 71.64C8.53834 71.4274 7.19299 70.2632 7.24357 68.0867C7.28403 66.1026 8.56868 64.8271 10.5614 64.817C12.7261 64.8068 14.0512 66.1431 14.0108 68.3196C13.9602 70.2936 12.6654 71.397 10.6322 71.64Z" fill="#2D388A"/>
<path d="M68.0153 7.17566C69.9271 7.30726 71.323 8.28921 71.5152 10.2936C71.7175 12.4903 70.4531 13.9379 68.2985 14.0594C66.1237 14.1809 64.7379 12.8244 64.7076 10.6479C64.6772 8.64353 65.9619 7.4996 68.0153 7.17566Z" fill="#2D388A"/>
<path d="M112.745 51.6368C112.543 53.7323 111.43 55.1901 109.266 55.2305C107.111 55.271 105.745 53.8842 105.715 51.7279C105.695 49.7438 106.99 48.4075 108.942 48.2759C111.107 48.1342 112.331 49.4907 112.745 51.6368Z" fill="#2D388A"/>
<path d="M10.5182 48.3165C12.4098 48.438 13.7855 49.3997 13.9777 51.394C14.18 53.5704 12.9358 55.0079 10.7913 55.1294C8.63674 55.2408 7.26106 53.9248 7.23071 51.7483C7.21048 49.754 8.46479 48.6202 10.5182 48.3165Z" fill="#2D388A"/>
<path d="M55.2094 109.228C54.997 111.303 53.8742 112.74 51.7297 112.75C49.5953 112.761 48.25 111.394 48.25 109.248C48.25 107.274 49.5448 105.968 51.4869 105.857C53.6314 105.735 54.8452 107.071 55.2094 109.228Z" fill="#2D388A"/>
<path d="M55.1592 10.5874C55.0075 12.531 53.9757 13.8977 51.983 14.0495C49.798 14.2115 48.3515 12.9258 48.2807 10.7595C48.1998 8.58301 49.5755 7.21637 51.7604 7.2265C53.7532 7.24674 54.876 8.55262 55.1592 10.5874Z" fill="#2D388A"/>
<path d="M68.1249 112.821C66.0209 112.548 64.6148 111.384 64.6654 109.227C64.716 107.091 66.1321 105.775 68.2766 105.846C70.2289 105.917 71.5236 107.223 71.5641 109.187C71.6147 111.353 70.2491 112.517 68.1249 112.821Z" fill="#2D388A"/>
<path d="M100.94 96.0065C98.9064 95.8445 97.7734 94.7513 97.8645 92.6659C97.9454 90.7729 99.0884 89.72 100.97 89.7403C103.064 89.7605 104.156 90.9753 104.075 93.0404C104.015 94.9537 102.841 95.885 100.94 96.0065Z" fill="#2D388A"/>
<path d="M92.466 15.7297C94.6712 15.841 95.8648 16.8331 95.8446 18.9286C95.8243 20.8115 94.7622 21.9149 92.8808 21.9554C90.8172 22.006 89.6742 20.8824 89.6641 18.8172C89.6742 16.904 90.8274 15.9828 92.466 15.7297Z" fill="#2D388A"/>
<path d="M92.8094 97.9299C94.711 98.0919 95.844 99.0637 95.8743 100.977C95.9047 103.052 94.7717 104.216 92.688 104.196C90.7964 104.176 89.7039 103.093 89.6534 101.19C89.6129 99.0941 90.7863 98.0514 92.8094 97.9299Z" fill="#2D388A"/>
<path d="M100.696 23.9294C102.901 24.0407 104.104 25.0429 104.084 27.1485C104.064 29.0416 103.002 30.1551 101.1 30.1956C99.0265 30.2462 97.8633 29.1124 97.8633 27.0271C97.8633 25.1138 99.0164 24.1723 100.696 23.9294Z" fill="#2D388A"/>
<path d="M30.1344 18.9392C29.9523 20.8019 28.9711 21.9256 27.0694 21.9155C24.9755 21.9053 23.883 20.6703 24.0145 18.6254C24.1258 16.7425 25.3295 15.7505 27.211 15.8314C29.1127 15.9124 30.0231 17.0766 30.1344 18.9392Z" fill="#2D388A"/>
<path d="M18.9435 89.7502C20.8149 89.9527 21.9174 90.9549 21.8871 92.8783C21.8466 94.994 20.5923 96.0671 18.5288 95.9152C16.6271 95.7836 15.656 94.5486 15.7572 92.6556C15.8786 90.7322 17.0621 89.8312 18.9435 89.7502Z" fill="#2D388A"/>
<path d="M87.476 10.5469C87.3243 12.2476 86.4342 13.4219 84.7348 13.513C82.8432 13.6142 81.6597 12.4602 81.6799 10.5671C81.7002 8.86645 82.823 7.79339 84.5325 7.77314C86.2622 7.76302 87.1827 8.88669 87.476 10.5469Z" fill="#2D388A"/>
<path d="M38.1669 10.6585C37.9242 12.3187 37.0239 13.4828 35.3346 13.493C33.4734 13.5031 32.3101 12.3187 32.4214 10.456C32.5226 8.80593 33.6555 7.73286 35.365 7.80372C37.0644 7.87459 37.9444 9.00839 38.1669 10.6585Z" fill="#2D388A"/>
<path d="M27.0404 97.9705C28.9218 98.1021 30.0851 99.0536 30.1155 100.977C30.1458 103.073 28.9623 104.216 26.8785 104.135C24.9667 104.065 23.9451 102.89 23.9855 100.997C24.026 99.0739 25.1589 98.1223 27.0404 97.9705Z" fill="#2D388A"/>
<path d="M109.178 87.6144C107.367 87.3613 106.194 86.3692 106.295 84.4661C106.386 82.7755 107.489 81.7024 109.188 81.7227C111.07 81.7531 112.192 82.9172 112.111 84.8102C112.031 86.5211 110.888 87.4119 109.178 87.6144Z" fill="#2D388A"/>
<path d="M10.3996 81.7126C12.2103 81.9151 13.3836 82.7958 13.4544 84.4763C13.5354 86.3389 12.3721 87.5234 10.5109 87.4829C8.84182 87.4525 7.77971 86.3187 7.7696 84.6281C7.75948 82.8971 8.9531 82.067 10.3996 81.7126Z" fill="#2D388A"/>
<path d="M18.9453 30.2059C16.8919 29.9832 15.7691 29.0114 15.7893 27.1082C15.8096 25.0127 17.0437 23.9295 19.0971 24.0611C20.9785 24.1826 21.9597 25.3873 21.8788 27.2702C21.7979 29.1936 20.5638 30.0237 18.9453 30.2059Z" fill="#2D388A"/>
<path d="M109.017 38.264C107.267 37.8895 106.114 36.867 106.326 34.9841C106.508 33.3442 107.651 32.2914 109.34 32.4128C111.181 32.5546 112.264 33.7592 112.071 35.6219C111.9 37.2922 110.736 38.1628 109.017 38.264Z" fill="#2D388A"/>
<path d="M38.1962 109.42C37.8928 111.08 36.9621 112.193 35.2425 112.173C33.533 112.153 32.4203 111.07 32.4102 109.369C32.4001 107.476 33.5937 106.332 35.4752 106.443C37.1543 106.535 38.0445 107.719 38.1962 109.42Z" fill="#2D388A"/>
<path d="M84.3503 106.312C86.3228 106.595 87.5063 107.557 87.4355 109.44C87.3647 111.11 86.2722 112.193 84.583 112.183C82.7217 112.173 81.609 111.019 81.6495 109.146C81.7001 107.456 82.9139 106.646 84.3503 106.312Z" fill="#2D388A"/>
<path d="M13.5044 35.3892C13.1908 37.0697 12.2501 38.2035 10.5203 38.1225C8.82096 38.0516 7.73861 36.9178 7.7993 35.207C7.87011 33.5063 8.99292 32.4231 10.7125 32.4839C12.422 32.5547 13.3122 33.7189 13.5044 35.3892Z" fill="#2D388A"/>
<path d="M120 59.9072C119.828 61.5775 118.968 62.5392 117.39 62.519C115.812 62.4987 114.851 61.5269 114.871 59.9477C114.892 58.3685 115.863 57.4169 117.441 57.427C119.029 57.4371 119.838 58.4494 120 59.9072Z" fill="#2D388A"/>
<path d="M78.5856 117.235C78.525 118.743 77.8775 119.614 76.603 119.735C75.1464 119.877 74.1855 119.108 74.1349 117.61C74.0843 116.121 74.9643 115.291 76.4412 115.312C77.7663 115.332 78.3631 116.223 78.5856 117.235Z" fill="#2D388A"/>
<path d="M57.3867 117.569C57.6194 115.797 58.55 114.927 60.128 115.058C61.7364 115.19 62.5253 116.283 62.3635 117.842C62.2219 119.229 61.2913 120.039 59.8549 119.998C58.2364 119.958 57.5182 118.935 57.3867 117.569Z" fill="#2D388A"/>
<path d="M45.7095 117.509C45.5476 118.906 44.8092 119.776 43.3425 119.715C42.0781 119.655 41.2891 118.845 41.2891 117.579C41.2891 116.132 42.159 115.292 43.6055 115.342C44.88 115.383 45.5375 116.233 45.7095 117.509Z" fill="#2D388A"/>
<path d="M45.6812 2.44865C45.5092 3.71404 44.8315 4.57451 43.5468 4.58463C42.0801 4.59476 41.2102 3.68367 41.3316 2.22594C41.4327 0.980786 42.2925 0.191187 43.5974 0.272172C44.872 0.343034 45.5295 1.18325 45.6812 2.44865Z" fill="#2D388A"/>
<path d="M62.3679 2.43822C62.1656 4.2199 61.1743 5.0095 59.5862 4.85766C58.1498 4.71593 57.3811 3.7441 57.4721 2.30661C57.5733 0.636291 58.6354 -0.133064 60.2235 0.0187838C61.67 0.140262 62.3174 1.14245 62.3679 2.43822Z" fill="#2D388A"/>
<path d="M78.5962 2.34687C78.3332 3.92608 77.5139 4.76631 76.0775 4.61446C74.8535 4.48286 74.0645 3.63252 74.1556 2.357C74.2466 0.909388 75.1671 0.119779 76.6035 0.25138C77.8578 0.362735 78.4344 1.29406 78.5962 2.34687Z" fill="#2D388A"/>
<path d="M4.6022 43.5282C4.45047 44.7936 3.77276 45.6642 2.49822 45.6844C1.03149 45.7148 0.161563 44.8138 0.252601 43.346C0.333525 42.0907 1.19332 41.3112 2.48809 41.3618C3.78286 41.4327 4.44036 42.2729 4.6022 43.5282Z" fill="#2D388A"/>
<path d="M119.686 43.2956C119.585 44.9153 118.857 45.7657 117.38 45.7657C116.095 45.7657 115.286 45.0368 115.185 43.7714C115.064 42.344 115.782 41.4026 117.259 41.2912C118.746 41.19 119.454 42.0808 119.686 43.2956Z" fill="#2D388A"/>
<path d="M4.82511 59.9882C4.72396 61.537 3.88438 62.438 2.26592 62.3772C0.829534 62.3266 0.0101979 61.4661 8.24998e-05 60.0287C-0.0100329 58.3988 0.910467 57.5283 2.52893 57.5789C3.97543 57.6194 4.71384 58.5001 4.82511 59.9882Z" fill="#2D388A"/>
<path d="M4.60305 76.479C4.41085 77.7342 3.72302 78.5947 2.43837 78.5745C0.97164 78.5542 0.111828 77.633 0.253443 76.1753C0.374828 74.9402 1.25486 74.1506 2.54962 74.2519C3.82416 74.3531 4.49178 75.2034 4.60305 76.479Z" fill="#2D388A"/>
<path d="M119.676 76.3678C119.585 77.7952 118.857 78.6556 117.38 78.6556C116.095 78.6556 115.286 77.9268 115.185 76.6614C115.064 75.234 115.782 74.2824 117.259 74.1812C118.715 74.0901 119.504 74.9101 119.676 76.3678Z" fill="#2D388A"/>
</g>
</svg>
