<svg width="118" height="236" viewBox="0 0 118 236" fill="none" xmlns="http://www.w3.org/2000/svg">
<path opacity="0.3" d="M-24.7366 199.441C-33.3072 201.766 -42.1328 196.62 -44.436 187.918L-71.4468 85.8684C-73.7512 77.1622 -68.6444 68.2292 -60.069 65.9031L40.7366 38.5588C49.3072 36.234 58.1328 41.3797 60.436 50.0815L87.4468 152.132C89.7512 160.838 84.6443 169.771 76.069 172.097L-24.7366 199.441Z" stroke="#2D388A" stroke-width="2"/>
<path opacity="0.3" d="M25.4499 200.816C20.2418 208.11 10.1069 209.801 2.81309 204.593L-82.8166 143.45C-90.1105 138.242 -91.8013 128.107 -86.5932 120.813L-25.4501 35.1834C-20.242 27.8896 -10.1071 26.1988 -2.8133 31.4069L82.8164 92.55C90.1102 97.7581 91.8011 107.893 86.593 115.187L25.4499 200.816Z" stroke="#00AEEF" stroke-width="2"/>
</svg>
