<svg width="12" height="18" viewBox="0 0 12 18" fill="none" xmlns="http://www.w3.org/2000/svg">
<path d="M5.69181 15C4.35954 12.6882 3.00051 10.3867 1.69499 8.05954C0.769357 6.41413 0.817511 4.74308 1.87691 3.17456C2.90956 1.64192 4.44515 0.924292 6.34992 1.00631C8.63994 1.1037 10.6036 2.84138 10.9406 5.01476C10.9781 5.26593 10.9835 5.51197 10.9995 5.74776C11.0049 6.58841 10.7855 7.36242 10.3735 8.08004C9.39436 9.78184 8.40986 11.4836 7.43072 13.1854M6.05565 3.3796C4.68592 3.36934 3.57302 4.41503 3.54626 5.73238C3.52486 7.02411 4.64847 8.12105 6.00214 8.13643C7.37722 8.14668 8.51152 7.08562 8.52223 5.76826C8.53828 4.46116 7.42002 3.38985 6.05565 3.3796Z" stroke="#00AEEF" stroke-miterlimit="10" stroke-linecap="round" stroke-linejoin="round"/>
<path d="M10.9552 13.8808C10.9605 13.9207 10.9605 13.9656 10.9605 14.0055C10.9605 15.6573 8.73175 16.9997 5.98292 16.9997C3.22878 16.9997 1 15.6573 1 14.0055C1 12.8428 2.10378 11.8347 3.71699 11.3457" stroke="#00AEEF" stroke-miterlimit="10" stroke-linecap="round" stroke-linejoin="round"/>
</svg>
