<svg width="58" height="58" viewBox="0 0 58 58" fill="none" xmlns="http://www.w3.org/2000/svg">
<path d="M9.89649 5.36099C8.65223 5.49944 7.47709 5.36099 6.16371 5.56866C1.8088 6.26087 0.0115317 11.1756 1.53229 14.7751C4.64294 21.9741 7.61534 29.3116 10.4495 36.6491C11.5555 39.6256 14.044 41.2177 17.2929 41.633C20.4036 42.0484 23.0995 41.1485 25.2424 38.8642C26.7631 37.2721 28.4913 36.5799 30.6342 37.2721C31.6019 37.6182 32.3623 38.2412 32.9844 39.0026C35.7494 42.0484 40.5882 42.5329 44.1828 40.4563C45.8418 39.4872 46.9478 38.1028 47.639 36.303C49.2981 31.942 51.1644 27.6503 52.8926 23.2894C53.2382 22.3895 53.8603 21.5588 53.7221 20.5205" stroke="#00AEEF" stroke-width="1.5" stroke-miterlimit="10" stroke-linecap="round" stroke-linejoin="round"/>
<path d="M37.6162 7.71448C38.3075 6.95305 38.5149 6.05317 38.4457 5.15329C38.3766 4.25341 38.4457 3.35353 38.4457 2.38443C38.4457 1.48455 37.8236 1 36.5794 1C31.5332 1 26.5561 1 21.51 1C20.2657 1 19.7127 1.48455 19.6436 2.38443C19.6436 3.63042 19.7127 4.94562 19.6436 6.19161C19.5745 6.8146 20.3348 7.16071 20.4731 7.71448" stroke="#00AEEF" stroke-width="1.5" stroke-miterlimit="10" stroke-linecap="round" stroke-linejoin="round"/>
<path d="M55.3118 17.3363C56.3487 15.3289 57.3165 13.3214 56.9017 10.8987C56.487 8.54515 54.828 6.19162 52.2703 5.70707C48.0537 4.80719 44.2517 5.70706 41.072 8.75281C41.072 8.75281 38.7908 11.8678 37.4083 12.1447C35.6802 12.4908 34.0212 12.56 32.293 12.6984C28.6985 12.9753 25.0348 12.6984 21.4403 12.3523C19.5739 12.2139 17.5002 9.09892 17.5002 9.09892C16.5324 8.12982 15.4955 7.16072 14.1821 6.60694" stroke="#00AEEF" stroke-width="1.5" stroke-miterlimit="10" stroke-linecap="round" stroke-linejoin="round"/>
<path d="M39.6204 10.4834C38.86 8.47603 37.754 7.57615 35.4729 7.57615C31.0488 7.57615 26.6939 7.64537 22.2699 7.50692C20.8874 7.4377 20.127 7.99148 19.6431 9.09902C19.6431 9.09902 19.2284 9.92968 19.021 10.6911" stroke="#00AEEF" stroke-width="1.5" stroke-miterlimit="10" stroke-linecap="round" stroke-linejoin="round"/>
<path d="M37.6158 51.4624C38.238 51.9469 38.5145 52.5699 38.4453 53.1929C38.3762 54.0236 38.4453 54.785 38.4453 55.6157C38.4453 56.5848 37.8232 56.9309 36.2333 56.9309C34.5743 56.9309 32.9153 56.9309 31.1871 56.9309C30.2885 56.9309 29.3208 57.0001 28.4221 57.0001" stroke="#00AEEF" stroke-width="1.5" stroke-miterlimit="10" stroke-linecap="round" stroke-linejoin="round"/>
<path d="M37.4778 51.3932C36.1644 51.6009 34.851 51.4624 33.5376 51.4624C29.5974 51.4624 25.7264 51.4624 21.7863 51.4624C20.6111 51.4624 19.7125 50.9087 19.7125 50.078C19.6434 48.7628 19.6434 47.5168 19.7125 46.2016C19.7125 45.3709 20.6111 44.8172 21.7863 44.8172C26.625 44.8172 31.4638 44.8172 36.3026 44.8172C37.4778 44.8172 38.3764 45.3709 38.3764 46.2016C38.4455 47.5168 38.3764 48.7628 38.3764 50.078C38.3764 50.6318 37.6851 50.9087 37.5469 51.3932" stroke="#00AEEF" stroke-width="1.5" stroke-miterlimit="10" stroke-linecap="round" stroke-linejoin="round"/>
<path d="M20.4729 51.4624C19.8508 51.9469 19.5743 52.5699 19.6434 53.1929C19.7126 54.0236 19.6434 54.8542 19.6434 55.6849C19.6434 56.5155 20.2656 56.9309 21.6481 56.9309C22.8923 57.0001 24.2057 57.0001 25.45 57.0001" stroke="#00AEEF" stroke-width="1.5" stroke-miterlimit="10" stroke-linecap="round" stroke-linejoin="round"/>
<path d="M26.5562 21.3511C28.146 22.874 29.7359 22.9432 31.6023 21.628" stroke="#00AEEF" stroke-width="1.5" stroke-miterlimit="10" stroke-linecap="round" stroke-linejoin="round"/>
<path d="M18.8828 29.3809C20.4727 30.7654 22.0626 30.8346 24.1364 29.5886" stroke="#00AEEF" stroke-width="1.5" stroke-miterlimit="10" stroke-linecap="round" stroke-linejoin="round"/>
<path d="M40.035 29.2426C39.7585 29.3118 39.482 29.1041 39.2054 29.381C37.4773 30.9731 35.7492 30.6962 33.9519 29.5887" stroke="#00AEEF" stroke-width="1.5" stroke-miterlimit="10" stroke-linecap="round" stroke-linejoin="round"/>
<path d="M13.6292 19.3437C14.5971 21.2127 16.118 21.6973 18.123 21.2127" stroke="#00AEEF" stroke-width="1.5" stroke-miterlimit="10" stroke-linecap="round" stroke-linejoin="round"/>
<path d="M44.529 19.3437C43.5611 21.2127 42.0401 21.6973 40.0352 21.2127" stroke="#00AEEF" stroke-width="1.5" stroke-miterlimit="10" stroke-linecap="round" stroke-linejoin="round"/>
<path d="M36.3024 41.3561V41.2177V44.8172H21.5095V41.3561" stroke="#00AEEF" stroke-width="1.5" stroke-miterlimit="10" stroke-linecap="round" stroke-linejoin="round"/>
</svg>
