<svg width="170" height="68" viewBox="0 0 170 68" fill="none" xmlns="http://www.w3.org/2000/svg">
<path d="M51.515 0H5.1515C2.30641 0 0 2.32402 0 5.19084V62.8092C0 65.676 2.30641 68 5.1515 68H51.515C54.3601 68 56.6665 65.676 56.6665 62.8092V5.19084C56.6665 2.32402 54.3601 0 51.515 0Z" fill="white"/>
<path d="M10.3055 57.7905V10.3818H32.3494C41.2986 10.3818 45.773 14.0618 45.773 21.4217C45.773 26.8146 42.8557 30.6712 37.0212 32.9923C43.2505 34.1637 46.3652 37.7554 46.3652 43.7669C46.3652 53.1159 41.4629 57.7909 31.658 57.7909L10.3055 57.7905ZM31.2966 50.1654C35.1569 50.1654 37.0873 48.1762 37.0873 44.198C37.0873 39.2691 34.2029 36.805 28.4342 36.805H25.8021V31.1358C33.0403 29.9203 36.6595 26.8701 36.6595 21.9858C36.6595 19.3335 35.0364 18.0075 31.7902 18.0075H19.0247V50.1655L31.2966 50.1654Z" fill="#001E2A"/>
<path d="M71.3285 24.6181C73.2863 24.6181 74.2652 25.3828 74.2652 26.9124C74.2652 27.7901 73.8469 28.4419 73.0103 28.8678C73.5795 29.0329 74.0043 29.3219 74.2846 29.7346C74.5649 30.1474 74.7051 30.645 74.7051 31.2272C74.7051 32.0615 74.4053 32.7198 73.8059 33.2022C73.2065 33.6845 72.4195 33.9256 71.4449 33.9256H66.9688V24.6181H71.3285ZM71.0698 28.3854C71.8891 28.3854 72.2988 28.0161 72.2988 27.2774C72.2988 26.5648 71.8417 26.2085 70.9275 26.2085H68.9999V28.3854H71.0698ZM71.1862 32.3353C72.178 32.3353 72.674 31.9268 72.674 31.1099C72.674 30.2235 72.191 29.7803 71.225 29.7803H68.9999V32.3353H71.1862ZM78.1075 24.6181V28.1899H81.8463V24.6181H83.8774V33.9256H81.8463V29.9106H78.1075V33.9256H76.0764V24.6181H78.1075ZM87.6938 24.6181V33.9256H85.6627V24.6181H87.6938ZM96.258 24.3965C97.3879 24.3965 98.2869 24.6572 98.9554 25.1786C99.6238 25.7001 99.958 26.4388 99.958 27.3947H97.9916C97.9657 26.9254 97.8083 26.5735 97.5194 26.3388C97.2305 26.1042 96.7842 25.9869 96.1804 25.9869C95.7578 25.9869 95.4171 26.0803 95.1584 26.2671C94.8997 26.454 94.7703 26.7125 94.7703 27.0428C94.7703 27.3122 94.8501 27.5077 95.0096 27.6294C95.1692 27.751 95.3956 27.8597 95.6888 27.9552C95.9821 28.0508 96.4952 28.1899 97.2283 28.3724C97.9959 28.5636 98.5867 28.7722 99.0007 28.9981C99.4147 29.224 99.7294 29.513 99.9451 29.865C100.161 30.217 100.268 30.6493 100.268 31.162C100.268 31.753 100.113 32.2788 99.8028 32.7394C99.4923 33.2 99.0395 33.5497 98.4444 33.7887C97.8493 34.0278 97.1766 34.1472 96.4262 34.1472C95.2791 34.1472 94.3369 33.8583 93.5995 33.2804C92.8621 32.7024 92.4934 31.9094 92.4934 30.9013V30.8361H94.4598C94.4598 31.3837 94.6452 31.8073 95.0161 32.1071C95.387 32.407 95.8786 32.5569 96.4909 32.5569C97.0343 32.5569 97.4719 32.4591 97.804 32.2636C98.1361 32.068 98.3021 31.7791 98.3021 31.3967C98.3021 31.1447 98.2115 30.9318 98.0304 30.7579C97.8493 30.5841 97.6078 30.4429 97.3059 30.3343C97.0041 30.2256 96.4952 30.0888 95.7794 29.9236C94.9514 29.7151 94.3476 29.4935 93.9682 29.2588C93.5888 29.0242 93.2998 28.7396 93.1014 28.405C92.903 28.0704 92.8039 27.6685 92.8039 27.1992C92.8039 26.6169 92.9699 26.1085 93.3019 25.674C93.634 25.2395 94.0674 24.9179 94.6021 24.7093C95.1368 24.5008 95.6888 24.3965 96.258 24.3965ZM108.315 24.6181V26.3388H105.547V33.9256H103.516V26.3388H100.747V24.6181H108.315ZM116.284 24.6181V26.3388H111.407V28.3333H115.883V29.9237H111.407V32.2049H116.388V33.9256H109.376V24.6181H116.284ZM120.618 24.6181L122.779 31.0187H122.805L124.849 24.6181H127.708V33.9256H125.806V27.3295H125.78L123.516 33.9256H121.951L119.687 27.3947H119.661V33.9256H117.759V24.6181H120.618ZM133.633 24.3965C134.711 24.3965 135.617 24.7028 136.35 25.3155C137.083 25.9282 137.505 26.7386 137.618 27.7467H135.651C135.582 27.2861 135.354 26.8994 134.965 26.5865C134.577 26.2736 134.133 26.1172 133.633 26.1172C132.839 26.1172 132.223 26.404 131.783 26.9776C131.343 27.5512 131.123 28.329 131.123 29.311C131.123 30.2669 131.345 31.0252 131.789 31.5857C132.234 32.1463 132.848 32.4265 133.633 32.4265C134.219 32.4265 134.694 32.2462 135.056 31.8855C135.418 31.5249 135.642 31.01 135.729 30.3408H137.695C137.592 31.5227 137.171 32.4526 136.434 33.1305C135.696 33.8083 134.763 34.1472 133.633 34.1472C132.279 34.1472 131.184 33.6975 130.347 32.798C129.51 31.8986 129.092 30.7362 129.092 29.311C129.092 27.8683 129.506 26.6886 130.334 25.7718C131.162 24.855 132.262 24.3965 133.633 24.3965ZM145.988 24.6181V26.3388H141.11V28.3333H145.587V29.9237H141.11V32.2049H146.091V33.9256H139.079V24.6181H145.988ZM149.494 24.6181V32.2049H153.996V33.9256H147.463V24.6181H149.494ZM157.165 24.6181V32.2049H161.667V33.9256H155.134V24.6181H157.165ZM165.988 24.3965C167.118 24.3965 168.017 24.6572 168.686 25.1786C169.354 25.7001 169.688 26.4388 169.688 27.3947H167.722C167.696 26.9254 167.539 26.5735 167.25 26.3388C166.961 26.1042 166.514 25.9869 165.911 25.9869C165.488 25.9869 165.147 26.0803 164.889 26.2671C164.63 26.454 164.501 26.7125 164.501 27.0428C164.501 27.3122 164.58 27.5077 164.74 27.6294C164.899 27.751 165.126 27.8597 165.419 27.9552C165.712 28.0508 166.225 28.1899 166.959 28.3724C167.726 28.5636 168.317 28.7722 168.731 28.9981C169.145 29.224 169.46 29.513 169.675 29.865C169.891 30.217 169.999 30.6493 169.999 31.162C169.999 31.753 169.843 32.2788 169.533 32.7394C169.223 33.2 168.77 33.5497 168.175 33.7887C167.58 34.0278 166.907 34.1472 166.156 34.1472C165.009 34.1472 164.067 33.8583 163.33 33.2804C162.592 32.7024 162.224 31.9094 162.224 30.9013V30.8361H164.19C164.19 31.3837 164.375 31.8073 164.746 32.1071C165.117 32.407 165.609 32.5569 166.221 32.5569C166.764 32.5569 167.202 32.4591 167.534 32.2636C167.866 32.068 168.032 31.7791 168.032 31.3967C168.032 31.1447 167.942 30.9318 167.761 30.7579C167.58 30.5841 167.338 30.4429 167.036 30.3343C166.734 30.2256 166.225 30.0888 165.51 29.9236C164.682 29.7151 164.078 29.4935 163.698 29.2588C163.319 29.0242 163.03 28.7396 162.832 28.405C162.633 28.0704 162.534 27.6685 162.534 27.1992C162.534 26.6169 162.7 26.1085 163.032 25.674C163.364 25.2395 163.798 24.9179 164.332 24.7093C164.867 24.5008 165.419 24.3965 165.988 24.3965Z" fill="white"/>
<path d="M69.4434 39.5493L70.9729 43.6706H70.0392L69.7298 42.7528H68.2004L67.8796 43.6706H66.9688L68.5211 39.5493H69.4434ZM68.968 40.5652L68.4352 42.0775H69.495L68.9794 40.5652H68.968ZM73.0809 39.5493C73.6614 39.5493 74.1178 39.7302 74.45 40.0919C74.7823 40.4536 74.9484 40.9519 74.9484 41.5869C74.9484 42.2449 74.7813 42.7567 74.4472 43.1222C74.113 43.4878 73.6652 43.6706 73.1039 43.6706H71.3281V39.5493H73.0809ZM73.0237 42.9087C73.3483 42.9087 73.6003 42.8009 73.7798 42.5854C73.9593 42.3699 74.049 42.064 74.049 41.6677C74.049 41.2136 73.9526 40.874 73.7597 40.6489C73.5669 40.4238 73.27 40.3112 72.869 40.3112H72.2274V42.9087H73.0237ZM76.0597 39.5493L76.9705 42.4469H76.982L77.9042 39.5493H78.8322L77.4746 43.6706H76.4607L75.1317 39.5493H76.0597ZM80.9575 39.5493L82.4869 43.6706H81.5532L81.2439 42.7528H79.7144L79.3936 43.6706H78.4828L80.0352 39.5493H80.9575ZM80.482 40.5652L79.9493 42.0775H81.009L80.4935 40.5652H80.482ZM83.7357 39.5493L85.4428 42.3141H85.4542V39.5493H86.2963V43.6706H85.397L83.6956 40.9115H83.6842V43.6706H82.8421V39.5493H83.7357ZM88.9199 39.4512C89.3973 39.4512 89.7983 39.5868 90.1229 39.8581C90.4475 40.1294 90.6346 40.4883 90.6843 40.9346H89.8135C89.783 40.7307 89.6818 40.5594 89.5099 40.4209C89.3381 40.2824 89.1414 40.2131 88.9199 40.2131C88.5686 40.2131 88.2955 40.3401 88.1008 40.5941C87.906 40.848 87.8086 41.1925 87.8086 41.6273C87.8086 42.0506 87.907 42.3863 88.1036 42.6345C88.3003 42.8827 88.5724 43.0068 88.9199 43.0068C89.1796 43.0068 89.3896 42.927 89.55 42.7673C89.7104 42.6076 89.8097 42.3796 89.8479 42.0833H90.7186C90.6728 42.6066 90.4866 43.0183 90.1601 43.3185C89.8336 43.6187 89.4202 43.7687 88.9199 43.7687C88.3203 43.7687 87.8354 43.5696 87.4649 43.1713C87.0945 42.773 86.9093 42.2583 86.9093 41.6273C86.9093 40.9885 87.0926 40.4661 87.4592 40.0601C87.8258 39.6542 88.3127 39.4512 88.9199 39.4512ZM94.3905 39.5493V40.3112H92.2309V41.1944H94.2129V41.8986H92.2309V42.9087H94.4364V43.6706H91.3316V39.5493H94.3905ZM96.7964 39.5493C97.3769 39.5493 97.8333 39.7302 98.1655 40.0919C98.4978 40.4536 98.6639 40.9519 98.6639 41.5869C98.6639 42.2449 98.4968 42.7567 98.1627 43.1222C97.8285 43.4878 97.3807 43.6706 96.8194 43.6706H95.0436V39.5493H96.7964ZM96.7392 42.9087C97.0638 42.9087 97.3158 42.8009 97.4953 42.5854C97.6748 42.3699 97.7645 42.064 97.7645 41.6677C97.7645 41.2136 97.6681 40.874 97.4753 40.6489C97.2824 40.4238 96.9855 40.3112 96.5845 40.3112H95.9429V42.9087H96.7392ZM102.29 39.4512C102.79 39.4512 103.188 39.5666 103.484 39.7975C103.78 40.0284 103.928 40.3555 103.928 40.7788H103.058C103.046 40.571 102.976 40.4151 102.848 40.3112C102.721 40.2073 102.523 40.1554 102.256 40.1554C102.068 40.1554 101.918 40.1967 101.803 40.2795C101.688 40.3622 101.631 40.4767 101.631 40.6229C101.631 40.7422 101.667 40.8288 101.737 40.8827C101.808 40.9365 101.908 40.9846 102.038 41.027C102.168 41.0693 102.395 41.1309 102.72 41.2117C103.059 41.2963 103.321 41.3887 103.504 41.4887C103.688 41.5888 103.827 41.7167 103.923 41.8726C104.018 42.0284 104.066 42.2199 104.066 42.4469C104.066 42.7086 103.997 42.9414 103.86 43.1453C103.722 43.3493 103.522 43.5042 103.258 43.61C102.995 43.7158 102.697 43.7687 102.364 43.7687C101.857 43.7687 101.439 43.6408 101.113 43.3849C100.786 43.129 100.623 42.7778 100.623 42.3315V42.3026H101.494C101.494 42.545 101.576 42.7326 101.74 42.8654C101.904 42.9981 102.122 43.0645 102.393 43.0645C102.634 43.0645 102.827 43.0212 102.975 42.9346C103.122 42.8481 103.195 42.7201 103.195 42.5508C103.195 42.4392 103.155 42.3449 103.075 42.268C102.995 42.191 102.888 42.1285 102.754 42.0804C102.62 42.0323 102.395 41.9717 102.078 41.8986C101.711 41.8062 101.444 41.7081 101.276 41.6042C101.108 41.5003 100.98 41.3743 100.892 41.2261C100.804 41.078 100.76 40.9 100.76 40.6922C100.76 40.4344 100.834 40.2093 100.981 40.0168C101.128 39.8244 101.32 39.6821 101.557 39.5897C101.794 39.4974 102.038 39.4512 102.29 39.4512ZM107.629 39.5493V40.3112H106.403V43.6706H105.504V40.3112H104.278V39.5493H107.629ZM111.158 39.5493V40.3112H108.998V41.1944H110.98V41.8986H108.998V42.9087H111.203V43.6706H108.099V39.5493H111.158ZM113.077 39.5493L114.033 42.3834H114.045L114.95 39.5493H116.216V43.6706H115.374V40.7499H115.362L114.36 43.6706H113.667L112.664 40.7788H112.653V43.6706H111.811V39.5493H113.077ZM120.432 39.4512C120.909 39.4512 121.31 39.5868 121.635 39.8581C121.959 40.1294 122.146 40.4883 122.196 40.9346H121.325C121.295 40.7307 121.194 40.5594 121.022 40.4209C120.85 40.2824 120.653 40.2131 120.432 40.2131C120.08 40.2131 119.807 40.3401 119.613 40.5941C119.418 40.848 119.32 41.1925 119.32 41.6273C119.32 42.0506 119.419 42.3863 119.615 42.6345C119.812 42.8827 120.084 43.0068 120.432 43.0068C120.691 43.0068 120.901 42.927 121.062 42.7673C121.222 42.6076 121.322 42.3796 121.36 42.0833H122.23C122.185 42.6066 121.998 43.0183 121.672 43.3185C121.345 43.6187 120.932 43.7687 120.432 43.7687C119.832 43.7687 119.347 43.5696 118.977 43.1713C118.606 42.773 118.421 42.2583 118.421 41.6273C118.421 40.9885 118.604 40.4661 118.971 40.0601C119.338 39.6542 119.825 39.4512 120.432 39.4512ZM125.902 39.5493V40.3112H123.743V41.1944H125.725V41.8986H123.743V42.9087H125.948V43.6706H122.843V39.5493H125.902ZM127.455 39.5493V42.9087H129.448V43.6706H126.555V39.5493H127.455ZM130.852 39.5493V42.9087H132.845V43.6706H129.952V39.5493H130.852ZM137.972 39.5493V40.3112H136.746V43.6706H135.847V40.3112H134.621V39.5493H137.972ZM139.341 39.5493V41.1309H140.997V39.5493H141.896V43.6706H140.997V41.8928H139.341V43.6706H138.442V39.5493H139.341ZM145.745 39.5493V40.3112H143.586V41.1944H145.568V41.8986H143.586V42.9087H145.791V43.6706H142.687V39.5493H145.745ZM148.604 39.5493C148.948 39.5493 149.233 39.6561 149.46 39.8697C149.688 40.0832 149.801 40.3555 149.801 40.6864C149.801 41.2021 149.585 41.5465 149.154 41.7196V41.7312C149.299 41.7735 149.413 41.8437 149.495 41.9418C149.577 42.04 149.639 42.1545 149.681 42.2853C149.723 42.4161 149.75 42.6258 149.761 42.9145C149.776 43.2916 149.83 43.5436 149.921 43.6706H149.022C148.972 43.5436 148.934 43.305 148.908 42.9549C148.877 42.5854 148.81 42.344 148.707 42.2305C148.604 42.1169 148.436 42.0602 148.203 42.0602H147.298V43.6706H146.399V39.5493H148.604ZM148.289 41.4137C148.48 41.4137 148.63 41.3704 148.739 41.2838C148.847 41.1972 148.902 41.0443 148.902 40.8249C148.902 40.6171 148.848 40.47 148.741 40.3834C148.635 40.2968 148.482 40.2535 148.283 40.2535H147.298V41.4137H148.289ZM152.574 39.5493L154.103 43.6706H153.169L152.86 42.7528H151.331L151.01 43.6706H150.099L151.651 39.5493H152.574ZM152.098 40.5652L151.566 42.0775H152.625L152.11 40.5652H152.098ZM156.309 39.5493C156.744 39.5493 157.088 39.6686 157.34 39.9072C157.592 40.1457 157.718 40.4671 157.718 40.8711C157.718 41.279 157.592 41.6013 157.34 41.8379C157.088 42.0746 156.746 42.1929 156.314 42.1929H155.358V43.6706H154.458V39.5493H156.309ZM156.074 41.4887C156.333 41.4887 156.527 41.4406 156.655 41.3444C156.783 41.2482 156.847 41.0905 156.847 40.8711C156.847 40.6595 156.785 40.5036 156.661 40.4036C156.537 40.3035 156.343 40.2535 156.08 40.2535H155.358V41.4887H156.074ZM158.846 39.5493L159.803 41.177L160.754 39.5493H161.756L160.238 42.089V43.6706H159.339V42.0659L157.832 39.5493H158.846Z" fill="white"/>
</svg>
