<svg width="58" height="58" viewBox="0 0 58 58" fill="none" xmlns="http://www.w3.org/2000/svg">
<path d="M24.2716 22.3329C23.572 19.8399 22.9723 17.3468 23.472 14.6544C23.7718 13.0588 24.4715 12.4605 26.1705 12.261C27.07 12.1613 27.7696 11.563 28.6691 11.2638C32.1672 10.0672 35.7652 9.76799 39.2632 11.2638C41.2621 12.1613 42.8613 13.5574 44.1605 15.2527C46.5592 18.4438 47.8585 22.1335 49.6575 25.524C50.557 27.319 51.5564 29.114 52.4559 30.8093" stroke="#00AEEF" stroke-width="1.5" stroke-miterlimit="10" stroke-linecap="round" stroke-linejoin="round"/>
<path d="M25.2711 12.1613C25.0712 10.9647 25.8708 10.2666 26.6703 9.66829C28.1695 8.67108 29.6686 7.77358 31.4676 7.3747C33.1667 6.97581 33.5665 5.57971 32.7669 3.58527C32.4671 2.88722 32.0673 2.28889 31.4676 1.79028C30.3683 0.793067 29.6686 0.793067 28.2694 1.49112C24.8713 3.18639 21.6731 5.28054 19.2744 8.37191" stroke="#00AEEF" stroke-width="1.5" stroke-miterlimit="10" stroke-linecap="round" stroke-linejoin="round"/>
<path d="M15.0766 18.2444C13.6773 18.045 12.7778 17.0478 11.5785 16.4494C9.57961 15.5519 7.58072 14.7542 5.282 14.6544C2.78339 14.5547 1.58405 15.3525 1.08433 17.7458C0.784495 19.6405 1.28422 21.2361 2.5835 22.6322C3.18316 23.2305 3.68289 23.2305 4.28255 22.9313C6.58128 21.9341 8.88 21.9341 11.1787 22.6322C12.3781 23.0311 13.4775 23.5297 14.6768 23.7291" stroke="#00AEEF" stroke-width="1.5" stroke-miterlimit="10" stroke-linecap="round" stroke-linejoin="round"/>
<path d="M53.3552 32.704C54.1547 34.5987 55.3541 36.3937 56.0537 38.2884C57.0531 41.1803 57.5528 44.0723 56.0537 46.9642C54.9543 49.0583 53.0553 49.8561 50.9565 50.6539C50.1569 50.9531 49.3574 51.0528 48.5578 51.1525C45.9593 51.5514 44.4601 49.7564 42.5612 48.6595C42.0614 48.3603 41.7616 47.9614 41.3618 47.5625" stroke="#00AEEF" stroke-width="1.5" stroke-miterlimit="10" stroke-linecap="round" stroke-linejoin="round"/>
<path d="M10.1797 35.6956C11.379 38.4878 13.178 40.8812 15.7766 42.4767C17.2758 43.3742 18.4751 44.5709 19.7744 45.5681C21.8732 47.0639 24.1719 48.1608 26.6705 49.0583C27.0703 49.2578 27.57 49.3575 27.9698 49.6567C28.2697 49.8561 28.6694 50.0556 28.6694 50.3547C28.6694 51.4517 29.369 52.2494 29.7688 53.1469C30.3685 54.2439 30.9682 55.3408 31.5678 56.4377C31.8677 57.0361 32.3674 57.1358 32.967 56.8366C32.967 56.8366 33.067 56.8366 33.067 56.7369C35.5656 55.3408 35.1658 56.2383 34.6661 53.5458C34.5662 52.9475 34.3663 52.3492 34.3663 51.7508" stroke="#00AEEF" stroke-width="1.5" stroke-miterlimit="10" stroke-linecap="round" stroke-linejoin="round"/>
<path d="M41.6617 19.5408C40.0625 19.9397 39.4629 21.0366 38.9631 22.5324C38.5634 23.9285 37.8638 25.2249 36.5645 26.1224C35.9648 26.5213 35.1653 26.7207 34.5656 27.2193C34.1658 27.5185 33.4662 27.2193 32.8665 27.0199C30.8676 26.4216 28.8687 25.7235 26.7699 25.8232C23.9715 25.923 21.273 26.3218 19.5739 29.0143C19.374 29.1141 19.2741 29.2138 19.1741 29.2138C15.9759 30.6099 16.1758 33.6015 15.876 36.294C15.6761 38.089 16.1758 39.7843 16.8754 41.4795C17.0753 41.9781 17.0753 42.4768 16.8754 42.9754" stroke="#00AEEF" stroke-width="1.5" stroke-miterlimit="10" stroke-linecap="round" stroke-linejoin="round"/>
<path d="M28.7686 50.0557C29.9679 49.8562 31.0673 50.4545 32.2666 50.7537C33.5659 50.9531 34.7652 51.4518 36.0645 51.6512C38.863 51.9504 41.6614 52.2495 44.4598 52.0501C45.1595 52.0501 45.6592 51.8506 46.059 51.352" stroke="#00AEEF" stroke-width="1.5" stroke-miterlimit="10" stroke-linecap="round" stroke-linejoin="round"/>
<path d="M19.2739 29.3136C19.8736 30.1113 19.5738 31.0088 19.8736 31.8066C19.9735 32.1058 19.9735 32.4049 20.1734 32.6044C21.2728 33.7013 21.8725 35.1971 23.1718 36.1943C24.8708 37.4907 25.1707 38.9866 24.571 40.3827C24.471 40.6818 24.0713 40.6818 23.9713 40.981" stroke="#00AEEF" stroke-width="1.5" stroke-miterlimit="10" stroke-linecap="round" stroke-linejoin="round"/>
<path d="M11.9785 23.4298C10.3794 25.6237 9.18002 28.017 9.08008 30.8092C9.08008 31.4076 9.08008 31.9062 9.08008 32.5045" stroke="#00AEEF" stroke-width="1.5" stroke-miterlimit="10" stroke-linecap="round" stroke-linejoin="round"/>
<path d="M34.4658 27.4187C34.6657 28.017 35.2654 28.2165 35.6652 28.5156C37.5641 29.7123 39.563 30.7095 41.262 32.305C41.7618 32.8037 42.2615 33.3023 42.7612 33.7011C44.1604 34.8978 45.7596 34.9975 47.3587 34.0003" stroke="#00AEEF" stroke-width="1.5" stroke-miterlimit="10" stroke-linecap="round" stroke-linejoin="round"/>
<path d="M17.2754 11.3636C16.6758 13.0589 16.0761 14.8539 15.5764 16.6489C15.0767 18.2444 15.2765 19.84 15.1766 21.5353C15.0767 22.2333 15.1766 22.9314 15.0767 23.6294C15.0767 24.3275 15.4764 24.9258 15.5764 25.6238C15.7763 26.9202 16.0761 28.1169 16.5758 29.3135C16.7757 29.7124 16.9756 30.0116 17.2754 30.3108" stroke="#00AEEF" stroke-width="1.5" stroke-miterlimit="10" stroke-linecap="round" stroke-linejoin="round"/>
<path d="M37.0643 29.6125C35.9649 31.4075 36.1648 32.6042 37.1643 34.4989C37.9638 35.9947 39.363 37.1914 39.5629 38.9864C39.6629 39.8838 39.9627 40.7813 38.8633 41.3797" stroke="#00AEEF" stroke-width="1.5" stroke-miterlimit="10" stroke-linecap="round" stroke-linejoin="round"/>
<path d="M27.6696 34.3993C27.4697 34.3993 27.2698 34.8979 26.87 34.3993C25.171 32.6043 23.272 32.3052 21.0732 33.5018" stroke="#00AEEF" stroke-width="1.5" stroke-miterlimit="10" stroke-linecap="round" stroke-linejoin="round"/>
<path d="M43.8605 34.499C43.4607 36.0946 44.4601 38.2884 45.9593 39.0862C46.2591 39.2857 46.559 39.3854 46.6589 39.6846" stroke="#00AEEF" stroke-width="1.5" stroke-miterlimit="10" stroke-linecap="round" stroke-linejoin="round"/>
<path d="M37.7639 36.1942C36.9644 36.992 36.5646 38.1887 35.2653 38.3881C34.6656 38.4878 34.066 38.5876 33.4663 38.5876" stroke="#00AEEF" stroke-width="1.5" stroke-miterlimit="10" stroke-linecap="round" stroke-linejoin="round"/>
<path d="M39.2632 22.7318C39.8629 22.7318 40.4625 22.6321 40.9622 22.7318C42.0616 22.9313 43.0611 23.4299 43.4609 24.6265" stroke="#00AEEF" stroke-width="1.5" stroke-miterlimit="10" stroke-linecap="round" stroke-linejoin="round"/>
<path d="M22.9722 23.031C24.1715 22.1335 25.6707 22.4327 27.0699 22.2332" stroke="#00AEEF" stroke-width="1.5" stroke-miterlimit="10" stroke-linecap="round" stroke-linejoin="round"/>
</svg>
