<svg width="38" height="41" viewBox="0 0 38 41" fill="none" xmlns="http://www.w3.org/2000/svg">
<path d="M36.5 18C36.5 27.665 28.665 35.5 19 35.5C9.33502 35.5 1.5 27.665 1.5 18C1.5 8.33502 9.33502 0.5 19 0.5C28.665 0.5 36.5 8.33502 36.5 18Z" fill="white" stroke="#E9E9E9"/>
<g filter="url(#filter0_d_49_3360)">
<g filter="url(#filter1_d_49_3360)">
<path d="M19 10.6214C21.4033 10.6214 21.688 10.6305 22.6366 10.6741C23.5141 10.7142 23.9908 10.8605 24.3079 10.9842C24.7277 11.1473 25.0279 11.3428 25.3429 11.6578C25.6579 11.9728 25.8527 12.2723 26.0158 12.6928C26.1388 13.0099 26.2858 13.4866 26.3259 14.3641C26.3695 15.3134 26.3786 15.5981 26.3786 18.0007C26.3786 20.4033 26.3695 20.6887 26.3259 21.6373C26.2858 22.5148 26.1395 22.9915 26.0158 23.3086C25.8527 23.7284 25.6572 24.0286 25.3429 24.3436C25.0279 24.6586 24.7284 24.8534 24.3079 25.0165C23.9908 25.1395 23.5141 25.2865 22.6366 25.3266C21.6873 25.3702 21.4033 25.3793 19 25.3793C16.5967 25.3793 16.312 25.3702 15.3634 25.3266C14.4859 25.2865 14.0092 25.1402 13.6921 25.0165C13.2723 24.8534 12.9721 24.6579 12.6571 24.3436C12.3421 24.0286 12.1473 23.7291 11.9842 23.3086C11.8612 22.9915 11.7142 22.5148 11.6741 21.6373C11.6305 20.688 11.6214 20.4033 11.6214 18.0007C11.6214 15.5981 11.6305 15.3127 11.6741 14.3641C11.7142 13.4866 11.8605 13.0099 11.9842 12.6928C12.1473 12.273 12.3428 11.9728 12.6571 11.6578C12.9714 11.3428 13.2716 11.148 13.6921 10.9842C14.0092 10.8612 14.4859 10.7142 15.3634 10.6741C16.312 10.6305 16.5967 10.6214 19 10.6214ZM19 9C16.5559 9 16.2494 9.01055 15.2896 9.05414C14.3313 9.09773 13.6773 9.25031 13.1043 9.4725C12.5123 9.70242 12.0102 10.0104 11.5103 10.5103C11.0104 11.0102 10.7024 11.513 10.4725 12.105C10.2503 12.6773 10.0977 13.3313 10.0541 14.2896C10.0105 15.2494 10 15.5559 10 18C10 20.4441 10.0105 20.7506 10.0541 21.7104C10.0977 22.668 10.2503 23.3227 10.4725 23.895C10.7024 24.487 11.0104 24.9891 11.5103 25.489C12.0109 25.9896 12.5123 26.2969 13.1043 26.5268C13.6766 26.749 14.3313 26.9016 15.2889 26.9452C16.2494 26.9895 16.5559 27 19 27C21.4441 27 21.7506 26.9895 22.7104 26.9459C23.668 26.9023 24.3227 26.7497 24.895 26.5275C25.487 26.2976 25.9891 25.9896 26.489 25.4897C26.9896 24.9891 27.2969 24.4877 27.5268 23.8957C27.749 23.3234 27.9016 22.6687 27.9452 21.7111C27.9888 20.7513 27.9993 20.4448 27.9993 18.0007C27.9993 15.5566 27.9888 15.2501 27.9452 14.2903C27.9016 13.3327 27.749 12.678 27.5268 12.1057C27.2969 11.5137 26.9889 11.0116 26.489 10.5117C25.9891 10.0118 25.487 9.70242 24.895 9.4725C24.3227 9.25031 23.668 9.09773 22.7104 9.05414C21.7506 9.01055 21.4441 9 19 9ZM19 13.3784C16.4477 13.3784 14.3784 15.4477 14.3784 18C14.3784 20.5523 16.4477 22.6216 19 22.6216C21.5523 22.6216 23.6216 20.5523 23.6216 18C23.6216 15.4477 21.5523 13.3784 19 13.3784ZM19 21.0002C17.3434 21.0002 15.9998 19.6573 15.9998 18C15.9998 16.3427 17.3427 14.9998 19 14.9998C20.6573 14.9998 22.0002 16.3427 22.0002 18C22.0002 19.6573 20.6566 21.0002 19 21.0002ZM24.8845 13.1955C24.8845 13.7918 24.4007 14.2755 23.8045 14.2755C23.2082 14.2755 22.7245 13.7918 22.7245 13.1955C22.7245 12.5993 23.2082 12.1155 23.8045 12.1155C24.4007 12.1155 24.8845 12.5993 24.8845 13.1955Z" fill="#001E29"/>
</g>
</g>
<defs>
<filter id="filter0_d_49_3360" x="0" y="3" width="37.9993" height="38" filterUnits="userSpaceOnUse" color-interpolation-filters="sRGB">
<feFlood flood-opacity="0" result="BackgroundImageFix"/>
<feColorMatrix in="SourceAlpha" type="matrix" values="0 0 0 0 0 0 0 0 0 0 0 0 0 0 0 0 0 0 127 0" result="hardAlpha"/>
<feOffset dy="4"/>
<feGaussianBlur stdDeviation="5"/>
<feComposite in2="hardAlpha" operator="out"/>
<feColorMatrix type="matrix" values="0 0 0 0 0.466667 0 0 0 0 0.466667 0 0 0 0 0.466667 0 0 0 0.25 0"/>
<feBlend mode="normal" in2="BackgroundImageFix" result="effect1_dropShadow_49_3360"/>
<feBlend mode="normal" in="SourceGraphic" in2="effect1_dropShadow_49_3360" result="shape"/>
</filter>
<filter id="filter1_d_49_3360" x="0" y="3" width="37.9993" height="38" filterUnits="userSpaceOnUse" color-interpolation-filters="sRGB">
<feFlood flood-opacity="0" result="BackgroundImageFix"/>
<feColorMatrix in="SourceAlpha" type="matrix" values="0 0 0 0 0 0 0 0 0 0 0 0 0 0 0 0 0 0 127 0" result="hardAlpha"/>
<feOffset dy="4"/>
<feGaussianBlur stdDeviation="5"/>
<feComposite in2="hardAlpha" operator="out"/>
<feColorMatrix type="matrix" values="0 0 0 0 0.466667 0 0 0 0 0.466667 0 0 0 0 0.466667 0 0 0 0.25 0"/>
<feBlend mode="normal" in2="BackgroundImageFix" result="effect1_dropShadow_49_3360"/>
<feBlend mode="normal" in="SourceGraphic" in2="effect1_dropShadow_49_3360" result="shape"/>
</filter>
</defs>
</svg>
