<svg width="37" height="40" viewBox="0 0 37 40" fill="none" xmlns="http://www.w3.org/2000/svg">
<path d="M35.5 18C35.5 27.665 27.665 35.5 18 35.5C8.33502 35.5 0.5 27.665 0.5 18C0.5 8.33502 8.33502 0.5 18 0.5C27.665 0.5 35.5 8.33502 35.5 18Z" fill="white" stroke="#E9E9E9"/>
<g filter="url(#filter0_d_49_3375)">
<path d="M18.7536 25.9999C18.8899 25.9999 19.0005 25.8894 19.0005 25.7531C19.0005 24.0865 18.9958 22.4194 19.0041 20.7528C19.0057 20.3828 19.0297 20.0102 19.0813 19.6445C19.2238 18.6411 19.7325 18.0968 20.6603 17.9846C21.6851 17.861 22.4021 18.2346 22.6035 19.3397C22.6697 19.7029 22.7031 20.0765 22.7052 20.4454C22.7162 22.2096 22.7115 23.9743 22.7125 25.7385C22.7125 25.8656 22.8156 25.9686 22.9426 25.9686C23.9408 25.9686 24.9197 25.9686 25.9054 25.9686C25.9751 25.9686 26.0395 25.9157 26.0395 25.846C26.0374 23.7886 26.0432 21.7311 26.0291 19.6737C26.0238 18.9312 25.9466 18.1928 25.7306 17.4759C25.4071 16.4031 24.7621 15.6313 23.6664 15.2854C22.9974 15.0741 22.3092 15.0234 21.6157 15.0876C20.821 15.1607 20.1067 15.4482 19.5223 15.9997C19.2695 16.238 18.8606 16.0995 18.8606 15.7521C18.8606 15.7411 18.8606 15.73 18.8606 15.719C18.8606 15.5054 18.6875 15.3323 18.474 15.3323C18.0714 15.3323 17.6721 15.3323 17.2744 15.3323C16.3983 15.3323 15.6881 16.0425 15.6881 16.9186C15.6881 19.3961 15.6881 21.8691 15.6881 24.3438C15.6881 25.2584 16.4296 25.9999 17.3443 25.9999C17.8113 25.9999 18.2798 25.9999 18.7536 25.9999ZM11.9305 25.9958C12.8417 25.9958 13.5785 25.2571 13.5785 24.3458C13.5785 21.889 13.5785 19.436 13.5785 16.9807C13.5785 16.0695 12.8372 15.3308 11.926 15.3308C11.0148 15.3308 10.2786 16.0695 10.2786 16.9807C10.2786 19.4381 10.2786 21.8912 10.2786 24.3458C10.2786 25.2571 11.0193 25.9958 11.9305 25.9958ZM13.8477 11.913C13.8399 10.848 12.9706 9.98915 11.9108 10.0001C10.8589 10.0111 9.99844 10.8778 10 11.9245C10.0016 12.989 10.8829 13.8682 11.9411 13.8614C12.993 13.8541 13.855 12.9733 13.8477 11.913Z" fill="#001E29"/>
<g filter="url(#filter1_d_49_3375)">
<path d="M18.9999 25.7537C18.9999 25.89 18.8893 26.0005 18.753 26.0005C18.2792 26.0005 17.8107 26.0005 17.3437 26.0005C16.429 26.0005 15.6875 25.259 15.6875 24.3443C15.6875 21.8697 15.6875 19.3967 15.6875 16.9192C15.6875 16.0431 16.3977 15.3329 17.2738 15.3329C17.6715 15.3329 18.0708 15.3329 18.4734 15.3329C18.6869 15.3329 18.86 15.506 18.86 15.7195C18.86 15.7306 18.86 15.7416 18.86 15.7527C18.86 16.1 19.2689 16.2386 19.5217 16.0003C20.1061 15.4482 20.8204 15.1612 21.6151 15.0882C22.3086 15.0245 22.9973 15.0751 23.6658 15.2859C24.7615 15.6319 25.4065 16.4042 25.73 17.4764C25.946 18.1934 26.0238 18.9317 26.0285 19.6742C26.0425 21.7317 26.0373 23.7891 26.0389 25.8466C26.0389 25.9165 25.9747 25.9692 25.9048 25.9692C24.9191 25.9692 23.9402 25.9692 22.942 25.9692C22.815 25.9692 22.7119 25.8662 22.7119 25.7391C22.7109 23.9749 22.7156 22.2102 22.7046 20.446C22.7025 20.0771 22.6691 19.7035 22.6029 19.3403C22.4009 18.2357 21.6845 17.8615 20.6597 17.9852C19.7319 18.0974 19.2232 18.6411 19.0807 19.645C19.0286 20.0108 19.0051 20.3839 19.0035 20.7533C18.9957 22.4199 18.9999 24.0866 18.9999 25.7537Z" fill="#001E29"/>
</g>
<g filter="url(#filter2_d_49_3375)">
<path d="M13.5772 24.3471C13.5772 25.2583 12.8404 25.997 11.9292 25.997C11.018 25.997 10.2773 25.2583 10.2773 24.3471C10.2773 21.8925 10.2773 19.4393 10.2773 16.982C10.2773 16.0707 11.0135 15.332 11.9247 15.332C12.8359 15.332 13.5772 16.0707 13.5772 16.982C13.5772 19.4371 13.5772 21.8902 13.5772 24.3471Z" fill="#001E29"/>
</g>
<g filter="url(#filter3_d_49_3375)">
<path d="M13.8477 11.913C13.855 12.9733 12.993 13.8541 11.9411 13.8614C10.8829 13.8682 10.0016 12.989 10 11.9245C9.99844 10.8778 10.8589 10.0111 11.9108 10.0001C12.9706 9.98915 13.8399 10.848 13.8477 11.913Z" fill="#001E29"/>
</g>
</g>
<defs>
<filter id="filter0_d_49_3375" x="0" y="4" width="36.0396" height="36.0005" filterUnits="userSpaceOnUse" color-interpolation-filters="sRGB">
<feFlood flood-opacity="0" result="BackgroundImageFix"/>
<feColorMatrix in="SourceAlpha" type="matrix" values="0 0 0 0 0 0 0 0 0 0 0 0 0 0 0 0 0 0 127 0" result="hardAlpha"/>
<feOffset dy="4"/>
<feGaussianBlur stdDeviation="5"/>
<feComposite in2="hardAlpha" operator="out"/>
<feColorMatrix type="matrix" values="0 0 0 0 0.466667 0 0 0 0 0.466667 0 0 0 0 0.466667 0 0 0 0.25 0"/>
<feBlend mode="normal" in2="BackgroundImageFix" result="effect1_dropShadow_49_3375"/>
<feBlend mode="normal" in="SourceGraphic" in2="effect1_dropShadow_49_3375" result="shape"/>
</filter>
<filter id="filter1_d_49_3375" x="5.6875" y="9.0625" width="30.3513" height="30.938" filterUnits="userSpaceOnUse" color-interpolation-filters="sRGB">
<feFlood flood-opacity="0" result="BackgroundImageFix"/>
<feColorMatrix in="SourceAlpha" type="matrix" values="0 0 0 0 0 0 0 0 0 0 0 0 0 0 0 0 0 0 127 0" result="hardAlpha"/>
<feOffset dy="4"/>
<feGaussianBlur stdDeviation="5"/>
<feComposite in2="hardAlpha" operator="out"/>
<feColorMatrix type="matrix" values="0 0 0 0 0.466667 0 0 0 0 0.466667 0 0 0 0 0.466667 0 0 0 0.25 0"/>
<feBlend mode="normal" in2="BackgroundImageFix" result="effect1_dropShadow_49_3375"/>
<feBlend mode="normal" in="SourceGraphic" in2="effect1_dropShadow_49_3375" result="shape"/>
</filter>
<filter id="filter2_d_49_3375" x="0.277344" y="9.33203" width="23.2998" height="30.665" filterUnits="userSpaceOnUse" color-interpolation-filters="sRGB">
<feFlood flood-opacity="0" result="BackgroundImageFix"/>
<feColorMatrix in="SourceAlpha" type="matrix" values="0 0 0 0 0 0 0 0 0 0 0 0 0 0 0 0 0 0 127 0" result="hardAlpha"/>
<feOffset dy="4"/>
<feGaussianBlur stdDeviation="5"/>
<feComposite in2="hardAlpha" operator="out"/>
<feColorMatrix type="matrix" values="0 0 0 0 0.466667 0 0 0 0 0.466667 0 0 0 0 0.466667 0 0 0 0.25 0"/>
<feBlend mode="normal" in2="BackgroundImageFix" result="effect1_dropShadow_49_3375"/>
<feBlend mode="normal" in="SourceGraphic" in2="effect1_dropShadow_49_3375" result="shape"/>
</filter>
<filter id="filter3_d_49_3375" x="0" y="4" width="23.8477" height="23.8613" filterUnits="userSpaceOnUse" color-interpolation-filters="sRGB">
<feFlood flood-opacity="0" result="BackgroundImageFix"/>
<feColorMatrix in="SourceAlpha" type="matrix" values="0 0 0 0 0 0 0 0 0 0 0 0 0 0 0 0 0 0 127 0" result="hardAlpha"/>
<feOffset dy="4"/>
<feGaussianBlur stdDeviation="5"/>
<feComposite in2="hardAlpha" operator="out"/>
<feColorMatrix type="matrix" values="0 0 0 0 0.466667 0 0 0 0 0.466667 0 0 0 0 0.466667 0 0 0 0.25 0"/>
<feBlend mode="normal" in2="BackgroundImageFix" result="effect1_dropShadow_49_3375"/>
<feBlend mode="normal" in="SourceGraphic" in2="effect1_dropShadow_49_3375" result="shape"/>
</filter>
</defs>
</svg>
