<svg width="67" height="58" viewBox="0 0 67 58" fill="none" xmlns="http://www.w3.org/2000/svg">
<path d="M28.6614 18.4424C28.6614 19.212 28.6614 19.9815 28.6614 20.8793C28.4049 24.8551 24.5573 27.2919 20.838 25.7529C20.1967 25.4964 19.6837 25.3681 19.0424 25.8811C18.5294 26.3941 18.6577 27.0354 18.9142 27.6767C19.1707 28.5745 19.5554 29.4722 19.9402 30.4983C18.6577 30.4983 17.5034 30.4983 16.3491 30.4983C15.5796 30.4983 14.9383 30.883 14.9383 31.7808C14.9383 32.8068 15.5796 33.0633 16.4774 33.0633C17.7599 33.0633 18.9142 33.0633 20.1967 33.0633C20.838 33.0633 21.0945 33.1916 21.2227 33.8328C21.351 34.3459 21.6075 34.8589 21.7357 35.3719C22.2488 37.0392 22.2488 37.1674 20.4532 37.2957C18.1447 37.5522 15.8361 37.9369 13.3993 38.1935C12.5015 38.3217 11.732 38.7065 11.9885 39.7325C12.1168 40.7585 12.8863 40.8868 13.784 40.7585C16.3491 40.3738 18.9142 40.1173 21.4792 39.7325C20.9662 41.3998 19.9402 42.6823 18.7859 43.7083C17.8881 44.6061 16.8621 45.3756 15.8361 46.1452C15.1948 46.6582 15.0666 47.2994 15.5796 47.9407C16.0926 48.582 16.7339 48.582 17.3751 48.069C21.2227 45.2474 24.4291 42.041 24.4291 36.7827C24.4291 36.1414 24.8138 35.6284 25.3268 35.3719C26.3529 34.8589 27.3789 34.4741 28.5332 33.8328M23.403 32.8068C23.0183 31.5243 22.5053 30.2417 21.9923 28.831C26.4811 28.831 29.5592 27.0354 30.97 22.6748M35.7154 22.6748C36.9979 27.0354 40.2042 28.831 44.6931 28.831C44.1801 30.2417 43.6671 31.5243 43.2823 32.9351M38.7934 34.2176C39.0499 34.3459 39.3064 34.4741 39.4347 34.4741C41.3585 34.9871 42.2563 36.0131 42.3845 38.1935C42.5128 41.3998 44.4366 43.8366 46.7451 45.8886C47.5147 46.5299 48.2842 47.1712 49.0537 47.8124C49.695 48.3255 50.4645 48.4537 50.9775 47.6842C51.4905 47.0429 51.234 46.4017 50.5927 45.7604C49.695 44.9909 48.7972 44.3496 48.0277 43.5801C46.7451 42.4258 45.7191 41.2715 45.2061 39.476C47.7712 39.8607 50.3362 40.1173 52.9013 40.502C53.9273 40.6303 54.6968 40.502 54.8251 39.476C54.9533 38.45 54.1838 38.1935 53.2861 38.0652C50.721 37.6804 48.1559 37.2957 45.5909 37.0392C44.5648 36.9109 44.5648 36.5262 44.8213 35.7566C45.7191 32.9351 45.7191 32.9351 48.6689 32.9351C49.0537 32.9351 49.5667 32.9351 49.9515 32.9351C50.8492 32.9351 51.747 32.8068 51.747 31.6525C51.747 30.4983 50.9775 30.37 49.9515 30.37C48.9254 30.37 47.8994 30.37 46.6169 30.37C47.0016 29.2157 47.2582 28.1897 47.6429 27.1637C47.8994 26.5224 47.7712 26.1376 47.3864 25.6246C47.0016 25.2399 46.3604 25.2399 45.8474 25.4964C41.615 27.1637 37.8957 24.5986 37.7674 19.9815C37.7674 18.8272 37.6392 18.5707 37.7674 17.9294M31.2265 10.7472C31.2265 11.0038 31.2265 11.2603 31.2265 11.645C31.2265 14.0818 31.2265 16.3904 31.2265 18.699C31.2265 19.4685 31.483 19.5967 32.1243 19.5967C33.1503 19.4685 34.5611 19.9815 35.2023 19.4685C35.9719 18.9555 35.3306 17.5447 35.4588 16.5186C35.4588 16.0056 35.4588 15.6209 35.4588 15.1079C35.5871 14.5948 35.8436 14.0818 36.3566 14.0818C38.6652 14.0818 40.8455 13.1841 43.2823 13.5688C46.1039 14.0818 48.9254 14.5948 51.4905 16.0056C54.6968 17.8012 56.8771 20.4945 58.0314 24.0856C60.34 31.396 62.7768 38.7065 65.0854 45.8886C66.1114 49.095 65.9831 51.9166 63.6746 54.3534C61.2378 56.9184 58.1597 57.5597 54.8251 56.5337C52.6448 55.8924 50.3362 55.5076 48.1559 55.2511C43.7953 54.6099 40.2042 52.5578 37.5109 49.095C36.2284 47.5559 35.8436 45.7604 35.7154 43.9648C35.4588 40.6303 35.5871 37.2957 35.5871 33.9611C35.5871 32.9351 34.1763 31.909 33.1503 32.1655C32.1243 32.5503 31.2265 32.9351 31.2265 34.4741C31.3547 38.1935 31.483 42.041 30.8417 45.7604C30.5852 47.0429 30.0722 48.3255 29.3027 49.2232C26.2246 52.8143 22.377 54.8664 17.6316 55.3794C15.3231 55.6359 13.0145 56.4054 10.706 56.7902C5.06282 57.8162 -0.708577 52.9426 1.47173 46.2734C3.90854 38.7065 6.34535 31.2678 8.78217 23.8291C10.8342 17.6729 15.4513 14.8514 21.4792 13.8253C23.6595 13.4406 25.9681 13.0558 28.2767 13.6971C29.0462 13.9536 28.7897 13.3123 28.7897 12.9276C28.7897 9.72122 28.7897 6.38664 28.7897 3.18031C28.7897 1.25651 29.0462 1 30.8417 1C32.6373 1 34.4328 1 36.2284 1C36.9979 1 37.6392 1.12825 37.8957 1.89777C38.0239 2.79555 38.2804 3.82157 37.6392 4.59109C37.1261 5.23236 36.1001 5.1041 35.7154 4.33459C35.4588 3.69332 35.0741 3.56507 34.4328 3.69332C33.4068 3.69332 32.1243 3.43681 31.483 3.82157C30.8417 4.46284 31.2265 5.74537 31.2265 6.89965C31.2265 7.41266 31.2265 7.79742 31.2265 8.31044" stroke="#00AEEF" stroke-width="1.5" stroke-miterlimit="10" stroke-linecap="round"/>
<path d="M36.741 10.7474C35.8433 10.6192 35.4585 10.1062 35.4585 9.33665C35.4585 8.69539 35.9715 8.18237 36.741 8.18237C37.5105 8.18237 38.0236 8.69539 38.0236 9.46491C37.8953 10.3627 37.3823 10.7474 36.741 10.7474Z" stroke="#00AEEF" stroke-width="1.5" stroke-miterlimit="10" stroke-linecap="round"/>
</svg>
