<svg width="82" height="82" viewBox="0 0 82 82" fill="none" xmlns="http://www.w3.org/2000/svg">
<path d="M43.1375 70.0379C42.3686 70.0379 41.7534 70.0379 41.1383 70.0379C29.1429 70.0379 17.1476 70.0379 4.99845 70.0379C1.76893 70.0379 1 69.4228 1 66.8089C1 50.818 1 34.827 1 18.6823M1 11.4556C1 8.99548 1 6.38157 1 3.92142C1 1.7688 1.76893 1 4.3833 1C22.2225 1 40.0618 1 57.901 1C60.5154 1 61.2843 1.61504 61.2843 3.92142C61.2843 16.8372 61.2843 29.753 61.2843 42.515C61.2843 42.9763 61.2843 43.5913 61.2843 44.0526" stroke="#00AEEF" stroke-width="1.5" stroke-miterlimit="10" stroke-linecap="round" stroke-linejoin="round"/>
<path d="M31.2959 9.30298V23.1413" stroke="#00AEEF" stroke-width="1.5" stroke-miterlimit="10" stroke-linecap="round" stroke-linejoin="round"/>
<path d="M24.376 16.2222H38.2168" stroke="#00AEEF" stroke-width="1.5" stroke-miterlimit="10" stroke-linecap="round" stroke-linejoin="round"/>
<path d="M30.2194 30.0605H15.7634V34.8271H30.2194V30.0605Z" stroke="#00AEEF" stroke-width="1.5" stroke-miterlimit="10" stroke-linecap="round" stroke-linejoin="round"/>
<path d="M28.528 47.4353H17.6091C16.6864 47.4353 15.9175 46.6665 15.9175 45.744C15.9175 44.8214 16.6864 44.0526 17.6091 44.0526H28.528C29.4507 44.0526 30.2196 44.8214 30.2196 45.744C30.3734 46.6665 29.4507 47.4353 28.528 47.4353Z" stroke="#00AEEF" stroke-width="1.5" stroke-miterlimit="10" stroke-linecap="round" stroke-linejoin="round"/>
<path d="M28.528 54.0469H17.6091C16.6864 54.0469 15.9175 53.2781 15.9175 52.3555C15.9175 51.433 16.6864 50.6642 17.6091 50.6642H28.528C29.4507 50.6642 30.2196 51.433 30.2196 52.3555C30.3734 53.2781 29.4507 54.0469 28.528 54.0469Z" stroke="#00AEEF" stroke-width="1.5" stroke-miterlimit="10" stroke-linecap="round" stroke-linejoin="round"/>
<path d="M28.528 60.6586H17.6091C16.6864 60.6586 15.9175 59.8898 15.9175 58.9672C15.9175 58.0447 16.6864 57.2759 17.6091 57.2759H28.528C29.4507 57.2759 30.2196 58.0447 30.2196 58.9672C30.3734 59.736 29.4507 60.6586 28.528 60.6586Z" stroke="#00AEEF" stroke-width="1.5" stroke-miterlimit="10" stroke-linecap="round" stroke-linejoin="round"/>
<path d="M46.0594 47.4366H41.2921C40.6769 47.4366 40.0618 46.8213 40.0618 46.2059C40.0618 45.5905 40.6769 44.9751 41.2921 44.9751H46.0594C46.6746 44.9751 47.2897 45.5905 47.2897 46.2059C47.136 46.9751 46.6746 47.4366 46.0594 47.4366Z" stroke="#00AEEF" stroke-width="1.5" stroke-miterlimit="10" stroke-linecap="round" stroke-linejoin="round"/>
<path d="M46.0594 53.4332H41.2921C40.6769 53.4332 40.0618 52.8178 40.0618 52.2024C40.0618 51.5871 40.6769 50.9717 41.2921 50.9717H46.0594C46.6746 50.9717 47.2897 51.5871 47.2897 52.2024C47.136 52.9717 46.6746 53.4332 46.0594 53.4332Z" stroke="#00AEEF" stroke-width="1.5" stroke-miterlimit="10" stroke-linecap="round" stroke-linejoin="round"/>
<path d="M46.0594 59.4299H41.2921C40.6769 59.4299 40.0618 58.8145 40.0618 58.1992C40.0618 57.5838 40.6769 56.9684 41.2921 56.9684H46.0594C46.6746 56.9684 47.2897 57.5838 47.2897 58.1992C47.136 58.9684 46.6746 59.4299 46.0594 59.4299Z" stroke="#00AEEF" stroke-width="1.5" stroke-miterlimit="10" stroke-linecap="round" stroke-linejoin="round"/>
<path d="M47.1364 30.0605H32.6804V34.8271H47.1364V30.0605Z" stroke="#00AEEF" stroke-width="1.5" stroke-miterlimit="10" stroke-linecap="round" stroke-linejoin="round"/>
<path d="M58.8238 78.1871C58.6701 78.3409 58.5163 78.6484 58.2087 78.8022C55.5943 81.5698 51.2883 81.7236 48.5201 79.2634C45.752 76.8033 45.4444 72.8055 47.7512 69.8841C48.6739 68.6541 49.7504 67.5777 50.6732 66.3477L62.8223 73.4206C64.2064 71.7292 65.5905 70.1916 66.9745 68.6541L70.973 63.7338C67.5897 60.8123 64.0526 57.8909 60.5155 54.9695C58.2087 57.7371 55.9019 60.3511 53.4413 63.2725" stroke="#00AEEF" stroke-width="1.5" stroke-miterlimit="10" stroke-linecap="round" stroke-linejoin="round"/>
<path d="M66.8203 49.1266C69.896 51.7405 72.818 54.2006 75.8937 56.6608C77.5854 54.8157 78.9695 52.9706 80.5073 51.2792C81.2763 50.3567 81.1225 49.4341 80.1997 48.6653C78.2005 46.974 76.2013 45.2826 74.2021 43.5913C73.1256 42.6687 72.3566 42.8225 71.4339 43.745C69.896 45.5901 68.3582 47.2815 66.8203 49.1266Z" stroke="#00AEEF" stroke-width="1.5" stroke-miterlimit="10" stroke-linecap="round" stroke-linejoin="round"/>
<path d="M62.0533 48.6654C61.1306 48.6654 60.5154 49.4342 60.2078 50.0492C59.7465 50.818 60.3616 51.4331 60.823 51.8943C65.129 55.5846 69.5888 59.121 73.8948 62.8113C74.8176 63.58 75.5865 63.7338 76.5092 62.6575C77.2781 61.7349 77.1244 60.9661 76.2016 60.3511C71.7418 56.6609 67.4358 52.9707 62.976 49.2804C62.6684 48.9729 62.3608 48.8192 62.0533 48.6654Z" stroke="#00AEEF" stroke-width="1.5" stroke-miterlimit="10" stroke-linecap="round" stroke-linejoin="round"/>
</svg>
