<svg width="308" height="142" viewBox="0 0 308 142" fill="none" xmlns="http://www.w3.org/2000/svg">
<g filter="url(#filter0_d_49_975)">
<rect x="40" y="20" width="228" height="62" rx="16" fill="white"/>
</g>
<rect x="48" y="28" width="46" height="46" rx="23" fill="#00AEEF"/>
<path d="M64.4296 55.3412C64.522 55.0643 64.522 54.7875 64.6144 54.5107C64.6144 54.3261 64.6144 54.2338 64.522 54.0492C62.8589 52.5727 61.1959 51.0039 59.5328 49.5274C59.0708 49.1583 58.886 48.6046 59.0708 48.0509C59.2556 47.4972 59.6252 47.2204 60.1795 47.1281C61.473 47.0358 62.7665 46.8512 64.1524 46.7589C65.0764 46.6667 66.0003 46.5744 66.9242 46.4821C67.109 46.4821 67.109 46.3898 67.2014 46.2975C68.0329 44.175 68.9569 42.0526 69.7884 39.9301C70.158 39.0072 71.1743 38.7304 71.8211 39.2841C72.0058 39.4687 72.0982 39.6532 72.1906 39.9301C73.0222 42.0526 73.9461 44.175 74.7776 46.2975C74.87 46.4821 74.9624 46.4821 75.0548 46.4821C75.6092 46.5744 76.0711 46.5744 76.6255 46.6667" stroke="white" stroke-width="2" stroke-miterlimit="10" stroke-linecap="round"/>
<path d="M80.7822 47.0352C81.6137 47.1274 80.7822 47.0352 81.6137 47.1274C82.3529 47.2197 82.8148 47.4966 82.9996 48.2348V48.6962C82.9072 49.1576 82.63 49.4345 82.2605 49.7113C80.6898 51.1879 79.1191 52.5721 77.456 54.0486C77.3636 54.1409 77.2712 54.2332 77.2712 54.51C77.7332 56.7248 78.2876 59.0318 78.7495 61.2466C78.8419 61.8003 78.7495 62.354 78.2876 62.7231C77.8256 63.0923 77.2712 63.0923 76.8093 62.7231C74.869 61.5235 73.0212 60.3238 71.0809 59.1241C70.8961 59.0318 70.8037 59.0318 70.7113 59.1241C68.7711 60.3238 66.9232 61.5235 64.983 62.6308C64.2438 63.0923 63.5047 62.9077 63.1351 62.2617C62.9503 61.8926 62.8579 61.5235 62.9503 61.1543C63.2275 59.9547 63.1351 60.1392 63.4123 58.9396" stroke="white" stroke-width="2" stroke-miterlimit="10" stroke-linecap="round"/>
<path d="M117.068 46.476L115.796 44.952C115.444 45.04 115.084 45.084 114.716 45.084C113.932 45.084 113.212 44.9 112.556 44.532C111.9 44.164 111.38 43.656 110.996 43.008C110.612 42.352 110.42 41.612 110.42 40.788C110.42 39.972 110.612 39.24 110.996 38.592C111.38 37.936 111.9 37.424 112.556 37.056C113.212 36.688 113.932 36.504 114.716 36.504C115.508 36.504 116.228 36.688 116.876 37.056C117.532 37.424 118.048 37.936 118.424 38.592C118.808 39.24 119 39.972 119 40.788C119 41.532 118.84 42.212 118.52 42.828C118.208 43.436 117.78 43.932 117.236 44.316L119.156 46.476H117.068ZM112.148 40.788C112.148 41.348 112.256 41.84 112.472 42.264C112.688 42.688 112.988 43.016 113.372 43.248C113.764 43.472 114.212 43.584 114.716 43.584C115.22 43.584 115.664 43.472 116.048 43.248C116.432 43.016 116.732 42.688 116.948 42.264C117.164 41.84 117.272 41.348 117.272 40.788C117.272 40.228 117.164 39.74 116.948 39.324C116.732 38.9 116.432 38.576 116.048 38.352C115.664 38.128 115.22 38.016 114.716 38.016C114.212 38.016 113.764 38.128 113.372 38.352C112.988 38.576 112.688 38.9 112.472 39.324C112.256 39.74 112.148 40.228 112.148 40.788ZM126.549 38.352V45H124.857V44.16C124.641 44.448 124.357 44.676 124.005 44.844C123.661 45.004 123.285 45.084 122.877 45.084C122.357 45.084 121.897 44.976 121.497 44.76C121.097 44.536 120.781 44.212 120.549 43.788C120.325 43.356 120.213 42.844 120.213 42.252V38.352H121.893V42.012C121.893 42.54 122.025 42.948 122.289 43.236C122.553 43.516 122.913 43.656 123.369 43.656C123.833 43.656 124.197 43.516 124.461 43.236C124.725 42.948 124.857 42.54 124.857 42.012V38.352H126.549ZM127.775 41.652C127.775 40.98 127.907 40.384 128.171 39.864C128.443 39.344 128.807 38.944 129.263 38.664C129.727 38.384 130.243 38.244 130.811 38.244C131.307 38.244 131.739 38.344 132.107 38.544C132.483 38.744 132.783 38.996 133.007 39.3V38.352H134.699V45H133.007V44.028C132.791 44.34 132.491 44.6 132.107 44.808C131.731 45.008 131.295 45.108 130.799 45.108C130.239 45.108 129.727 44.964 129.263 44.676C128.807 44.388 128.443 43.984 128.171 43.464C127.907 42.936 127.775 42.332 127.775 41.652ZM133.007 41.676C133.007 41.268 132.927 40.92 132.767 40.632C132.607 40.336 132.391 40.112 132.119 39.96C131.847 39.8 131.555 39.72 131.243 39.72C130.931 39.72 130.643 39.796 130.379 39.948C130.115 40.1 129.899 40.324 129.731 40.62C129.571 40.908 129.491 41.252 129.491 41.652C129.491 42.052 129.571 42.404 129.731 42.708C129.899 43.004 130.115 43.232 130.379 43.392C130.651 43.552 130.939 43.632 131.243 43.632C131.555 43.632 131.847 43.556 132.119 43.404C132.391 43.244 132.607 43.02 132.767 42.732C132.927 42.436 133.007 42.084 133.007 41.676ZM138.02 36.12V45H136.34V36.12H138.02ZM140.532 37.56C140.236 37.56 139.988 37.468 139.788 37.284C139.596 37.092 139.5 36.856 139.5 36.576C139.5 36.296 139.596 36.064 139.788 35.88C139.988 35.688 140.236 35.592 140.532 35.592C140.828 35.592 141.072 35.688 141.264 35.88C141.464 36.064 141.564 36.296 141.564 36.576C141.564 36.856 141.464 37.092 141.264 37.284C141.072 37.468 140.828 37.56 140.532 37.56ZM141.36 38.352V45H139.68V38.352H141.36ZM144.975 39.732V42.948C144.975 43.172 145.027 43.336 145.131 43.44C145.243 43.536 145.427 43.584 145.683 43.584H146.463V45H145.407C143.991 45 143.283 44.312 143.283 42.936V39.732H142.491V38.352H143.283V36.708H144.975V38.352H146.463V39.732H144.975ZM154.032 38.352L149.916 48.144H148.128L149.568 44.832L146.904 38.352H148.788L150.504 42.996L152.244 38.352H154.032ZM160.749 45.108C160.109 45.108 159.533 44.968 159.021 44.688C158.509 44.4 158.105 43.996 157.809 43.476C157.521 42.956 157.377 42.356 157.377 41.676C157.377 40.996 157.525 40.396 157.821 39.876C158.125 39.356 158.537 38.956 159.057 38.676C159.577 38.388 160.157 38.244 160.797 38.244C161.437 38.244 162.017 38.388 162.537 38.676C163.057 38.956 163.465 39.356 163.761 39.876C164.065 40.396 164.217 40.996 164.217 41.676C164.217 42.356 164.061 42.956 163.749 43.476C163.445 43.996 163.029 44.4 162.501 44.688C161.981 44.968 161.397 45.108 160.749 45.108ZM160.749 43.644C161.053 43.644 161.337 43.572 161.601 43.428C161.873 43.276 162.089 43.052 162.249 42.756C162.409 42.46 162.489 42.1 162.489 41.676C162.489 41.044 162.321 40.56 161.985 40.224C161.657 39.88 161.253 39.708 160.773 39.708C160.293 39.708 159.889 39.88 159.561 40.224C159.241 40.56 159.081 41.044 159.081 41.676C159.081 42.308 159.237 42.796 159.549 43.14C159.869 43.476 160.269 43.644 160.749 43.644ZM168.221 43.452L169.901 38.352H171.689L169.229 45H167.189L164.741 38.352H166.541L168.221 43.452ZM178.813 41.532C178.813 41.772 178.797 41.988 178.765 42.18H173.905C173.945 42.66 174.113 43.036 174.409 43.308C174.705 43.58 175.069 43.716 175.501 43.716C176.125 43.716 176.569 43.448 176.833 42.912H178.645C178.453 43.552 178.085 44.08 177.541 44.496C176.997 44.904 176.329 45.108 175.537 45.108C174.897 45.108 174.321 44.968 173.809 44.688C173.305 44.4 172.909 43.996 172.621 43.476C172.341 42.956 172.201 42.356 172.201 41.676C172.201 40.988 172.341 40.384 172.621 39.864C172.901 39.344 173.293 38.944 173.797 38.664C174.301 38.384 174.881 38.244 175.537 38.244C176.169 38.244 176.733 38.38 177.229 38.652C177.733 38.924 178.121 39.312 178.393 39.816C178.673 40.312 178.813 40.884 178.813 41.532ZM177.073 41.052C177.065 40.62 176.909 40.276 176.605 40.02C176.301 39.756 175.929 39.624 175.489 39.624C175.073 39.624 174.721 39.752 174.433 40.008C174.153 40.256 173.981 40.604 173.917 41.052H177.073ZM181.719 39.384C181.935 39.032 182.215 38.756 182.559 38.556C182.911 38.356 183.311 38.256 183.759 38.256V40.02H183.315C182.787 40.02 182.387 40.144 182.115 40.392C181.851 40.64 181.719 41.072 181.719 41.688V45H180.039V38.352H181.719V39.384ZM193.99 46.476L192.718 44.952C192.366 45.04 192.006 45.084 191.638 45.084C190.854 45.084 190.134 44.9 189.478 44.532C188.822 44.164 188.302 43.656 187.918 43.008C187.534 42.352 187.342 41.612 187.342 40.788C187.342 39.972 187.534 39.24 187.918 38.592C188.302 37.936 188.822 37.424 189.478 37.056C190.134 36.688 190.854 36.504 191.638 36.504C192.43 36.504 193.15 36.688 193.798 37.056C194.454 37.424 194.97 37.936 195.346 38.592C195.73 39.24 195.922 39.972 195.922 40.788C195.922 41.532 195.762 42.212 195.442 42.828C195.13 43.436 194.702 43.932 194.158 44.316L196.078 46.476H193.99ZM189.07 40.788C189.07 41.348 189.178 41.84 189.394 42.264C189.61 42.688 189.91 43.016 190.294 43.248C190.686 43.472 191.134 43.584 191.638 43.584C192.142 43.584 192.586 43.472 192.97 43.248C193.354 43.016 193.654 42.688 193.87 42.264C194.086 41.84 194.194 41.348 194.194 40.788C194.194 40.228 194.086 39.74 193.87 39.324C193.654 38.9 193.354 38.576 192.97 38.352C192.586 38.128 192.142 38.016 191.638 38.016C191.134 38.016 190.686 38.128 190.294 38.352C189.91 38.576 189.61 38.9 189.394 39.324C189.178 39.74 189.07 40.228 189.07 40.788ZM203.471 38.352V45H201.779V44.16C201.563 44.448 201.279 44.676 200.927 44.844C200.583 45.004 200.207 45.084 199.799 45.084C199.279 45.084 198.819 44.976 198.419 44.76C198.019 44.536 197.703 44.212 197.471 43.788C197.247 43.356 197.135 42.844 197.135 42.252V38.352H198.815V42.012C198.815 42.54 198.947 42.948 199.211 43.236C199.475 43.516 199.835 43.656 200.291 43.656C200.755 43.656 201.119 43.516 201.383 43.236C201.647 42.948 201.779 42.54 201.779 42.012V38.352H203.471ZM204.697 41.652C204.697 40.98 204.829 40.384 205.093 39.864C205.365 39.344 205.729 38.944 206.185 38.664C206.649 38.384 207.165 38.244 207.733 38.244C208.229 38.244 208.661 38.344 209.029 38.544C209.405 38.744 209.705 38.996 209.929 39.3V38.352H211.621V45H209.929V44.028C209.713 44.34 209.413 44.6 209.029 44.808C208.653 45.008 208.217 45.108 207.721 45.108C207.161 45.108 206.649 44.964 206.185 44.676C205.729 44.388 205.365 43.984 205.093 43.464C204.829 42.936 204.697 42.332 204.697 41.652ZM209.929 41.676C209.929 41.268 209.849 40.92 209.689 40.632C209.529 40.336 209.313 40.112 209.041 39.96C208.769 39.8 208.477 39.72 208.165 39.72C207.853 39.72 207.565 39.796 207.301 39.948C207.037 40.1 206.821 40.324 206.653 40.62C206.493 40.908 206.413 41.252 206.413 41.652C206.413 42.052 206.493 42.404 206.653 42.708C206.821 43.004 207.037 43.232 207.301 43.392C207.573 43.552 207.861 43.632 208.165 43.632C208.477 43.632 208.769 43.556 209.041 43.404C209.313 43.244 209.529 43.02 209.689 42.732C209.849 42.436 209.929 42.084 209.929 41.676ZM216.946 38.256C217.738 38.256 218.378 38.508 218.866 39.012C219.354 39.508 219.598 40.204 219.598 41.1V45H217.918V41.328C217.918 40.8 217.786 40.396 217.522 40.116C217.258 39.828 216.898 39.684 216.442 39.684C215.978 39.684 215.61 39.828 215.338 40.116C215.074 40.396 214.942 40.8 214.942 41.328V45H213.262V38.352H214.942V39.18C215.166 38.892 215.45 38.668 215.794 38.508C216.146 38.34 216.53 38.256 216.946 38.256ZM223.151 39.732V42.948C223.151 43.172 223.203 43.336 223.307 43.44C223.419 43.536 223.603 43.584 223.859 43.584H224.639V45H223.583C222.167 45 221.459 44.312 221.459 42.936V39.732H220.667V38.352H221.459V36.708H223.151V38.352H224.639V39.732H223.151ZM226.7 37.56C226.404 37.56 226.156 37.468 225.956 37.284C225.764 37.092 225.668 36.856 225.668 36.576C225.668 36.296 225.764 36.064 225.956 35.88C226.156 35.688 226.404 35.592 226.7 35.592C226.996 35.592 227.24 35.688 227.432 35.88C227.632 36.064 227.732 36.296 227.732 36.576C227.732 36.856 227.632 37.092 227.432 37.284C227.24 37.468 226.996 37.56 226.7 37.56ZM227.528 38.352V45H225.848V38.352H227.528ZM231.143 39.732V42.948C231.143 43.172 231.195 43.336 231.299 43.44C231.411 43.536 231.595 43.584 231.851 43.584H232.631V45H231.575C230.159 45 229.451 44.312 229.451 42.936V39.732H228.659V38.352H229.451V36.708H231.143V38.352H232.631V39.732H231.143ZM240.2 38.352L236.084 48.144H234.296L235.736 44.832L233.072 38.352H234.956L236.672 42.996L238.412 38.352H240.2Z" fill="#4D626B"/>
<path d="M128.564 63.296V61.976L132.488 56.36H134.444V61.832H135.5V63.296H134.444V65H132.764V63.296H128.564ZM132.872 58.16L130.412 61.832H132.872V58.16ZM137.506 65.084C137.202 65.084 136.95 64.992 136.75 64.808C136.558 64.616 136.462 64.38 136.462 64.1C136.462 63.82 136.558 63.588 136.75 63.404C136.95 63.212 137.202 63.116 137.506 63.116C137.802 63.116 138.046 63.212 138.238 63.404C138.43 63.588 138.526 63.82 138.526 64.1C138.526 64.38 138.43 64.616 138.238 64.808C138.046 64.992 137.802 65.084 137.506 65.084ZM141.631 62.54C141.695 62.892 141.839 63.164 142.063 63.356C142.295 63.54 142.603 63.632 142.987 63.632C143.483 63.632 143.843 63.428 144.067 63.02C144.291 62.604 144.403 61.908 144.403 60.932C144.219 61.188 143.959 61.388 143.623 61.532C143.295 61.676 142.939 61.748 142.555 61.748C142.043 61.748 141.579 61.644 141.163 61.436C140.755 61.22 140.431 60.904 140.191 60.488C139.951 60.064 139.831 59.552 139.831 58.952C139.831 58.064 140.095 57.36 140.623 56.84C141.151 56.312 141.871 56.048 142.783 56.048C143.919 56.048 144.719 56.412 145.183 57.14C145.655 57.868 145.891 58.964 145.891 60.428C145.891 61.468 145.799 62.32 145.615 62.984C145.439 63.648 145.131 64.152 144.691 64.496C144.259 64.84 143.667 65.012 142.915 65.012C142.323 65.012 141.819 64.9 141.403 64.676C140.987 64.444 140.667 64.144 140.443 63.776C140.227 63.4 140.103 62.988 140.071 62.54H141.631ZM142.903 60.38C143.319 60.38 143.647 60.252 143.887 59.996C144.127 59.74 144.247 59.396 144.247 58.964C144.247 58.492 144.119 58.128 143.863 57.872C143.615 57.608 143.275 57.476 142.843 57.476C142.411 57.476 142.067 57.612 141.811 57.884C141.563 58.148 141.439 58.5 141.439 58.94C141.439 59.364 141.559 59.712 141.799 59.984C142.047 60.248 142.415 60.38 142.903 60.38Z" fill="#4D626B"/>
<path d="M156.013 67.232C155.245 66.48 154.645 65.524 154.213 64.364C153.789 63.204 153.577 61.952 153.577 60.608C153.577 59.232 153.801 57.948 154.249 56.756C154.705 55.556 155.353 54.568 156.193 53.792H157.333V53.9C156.437 54.74 155.761 55.752 155.305 56.936C154.857 58.112 154.633 59.336 154.633 60.608C154.633 61.848 154.845 63.032 155.269 64.16C155.701 65.288 156.329 66.276 157.153 67.124V67.232H156.013ZM158.186 57.32V56.324H160.442V65H159.338V57.32H158.186ZM162.846 65.072C162.638 65.072 162.462 65 162.318 64.856C162.174 64.712 162.102 64.536 162.102 64.328C162.102 64.12 162.174 63.944 162.318 63.8C162.462 63.656 162.638 63.584 162.846 63.584C163.046 63.584 163.214 63.656 163.35 63.8C163.494 63.944 163.566 64.12 163.566 64.328C163.566 64.536 163.494 64.712 163.35 64.856C163.214 65 163.046 65.072 162.846 65.072ZM166.242 62.672C166.322 63.128 166.506 63.48 166.794 63.728C167.09 63.976 167.486 64.1 167.982 64.1C168.646 64.1 169.134 63.84 169.446 63.32C169.766 62.8 169.918 61.924 169.902 60.692C169.734 61.052 169.454 61.336 169.062 61.544C168.67 61.744 168.234 61.844 167.754 61.844C167.218 61.844 166.738 61.736 166.314 61.52C165.898 61.296 165.57 60.972 165.33 60.548C165.09 60.124 164.97 59.612 164.97 59.012C164.97 58.156 165.218 57.468 165.714 56.948C166.21 56.42 166.914 56.156 167.826 56.156C168.946 56.156 169.73 56.52 170.178 57.248C170.634 57.976 170.862 59.06 170.862 60.5C170.862 61.508 170.77 62.34 170.586 62.996C170.41 63.652 170.106 64.152 169.674 64.496C169.25 64.84 168.666 65.012 167.922 65.012C167.106 65.012 166.47 64.792 166.014 64.352C165.558 63.912 165.298 63.352 165.234 62.672H166.242ZM167.934 60.92C168.47 60.92 168.91 60.756 169.254 60.428C169.598 60.092 169.77 59.64 169.77 59.072C169.77 58.472 169.602 57.988 169.266 57.62C168.93 57.252 168.458 57.068 167.85 57.068C167.29 57.068 166.842 57.244 166.506 57.596C166.178 57.948 166.014 58.412 166.014 58.988C166.014 59.572 166.178 60.04 166.506 60.392C166.834 60.744 167.31 60.92 167.934 60.92ZM173.98 60.488C173.532 60.312 173.188 60.056 172.948 59.72C172.708 59.384 172.588 58.976 172.588 58.496C172.588 58.064 172.696 57.676 172.912 57.332C173.128 56.98 173.448 56.704 173.872 56.504C174.304 56.296 174.824 56.192 175.432 56.192C176.04 56.192 176.556 56.296 176.98 56.504C177.412 56.704 177.736 56.98 177.952 57.332C178.176 57.676 178.288 58.064 178.288 58.496C178.288 58.96 178.164 59.368 177.916 59.72C177.668 60.064 177.328 60.32 176.896 60.488C177.392 60.64 177.784 60.908 178.072 61.292C178.368 61.668 178.516 62.124 178.516 62.66C178.516 63.18 178.388 63.636 178.132 64.028C177.876 64.412 177.512 64.712 177.04 64.928C176.576 65.136 176.04 65.24 175.432 65.24C174.824 65.24 174.288 65.136 173.824 64.928C173.368 64.712 173.012 64.412 172.756 64.028C172.5 63.636 172.372 63.18 172.372 62.66C172.372 62.124 172.516 61.664 172.804 61.28C173.092 60.896 173.484 60.632 173.98 60.488ZM177.232 58.628C177.232 58.14 177.072 57.764 176.752 57.5C176.432 57.236 175.992 57.104 175.432 57.104C174.88 57.104 174.444 57.236 174.124 57.5C173.804 57.764 173.644 58.144 173.644 58.64C173.644 59.088 173.808 59.448 174.136 59.72C174.472 59.992 174.904 60.128 175.432 60.128C175.968 60.128 176.4 59.992 176.728 59.72C177.064 59.44 177.232 59.076 177.232 58.628ZM175.432 60.968C174.84 60.968 174.356 61.108 173.98 61.388C173.604 61.66 173.416 62.072 173.416 62.624C173.416 63.136 173.596 63.548 173.956 63.86C174.324 64.172 174.816 64.328 175.432 64.328C176.048 64.328 176.536 64.172 176.896 63.86C177.256 63.548 177.436 63.136 177.436 62.624C177.436 62.088 177.252 61.68 176.884 61.4C176.516 61.112 176.032 60.968 175.432 60.968ZM181.371 62.672C181.451 63.128 181.635 63.48 181.923 63.728C182.219 63.976 182.615 64.1 183.111 64.1C183.775 64.1 184.263 63.84 184.575 63.32C184.895 62.8 185.047 61.924 185.031 60.692C184.863 61.052 184.583 61.336 184.191 61.544C183.799 61.744 183.363 61.844 182.883 61.844C182.347 61.844 181.867 61.736 181.443 61.52C181.027 61.296 180.699 60.972 180.459 60.548C180.219 60.124 180.099 59.612 180.099 59.012C180.099 58.156 180.347 57.468 180.843 56.948C181.339 56.42 182.043 56.156 182.955 56.156C184.075 56.156 184.859 56.52 185.307 57.248C185.763 57.976 185.991 59.06 185.991 60.5C185.991 61.508 185.899 62.34 185.715 62.996C185.539 63.652 185.235 64.152 184.803 64.496C184.379 64.84 183.795 65.012 183.051 65.012C182.235 65.012 181.599 64.792 181.143 64.352C180.687 63.912 180.427 63.352 180.363 62.672H181.371ZM183.063 60.92C183.599 60.92 184.039 60.756 184.383 60.428C184.727 60.092 184.899 59.64 184.899 59.072C184.899 58.472 184.731 57.988 184.395 57.62C184.059 57.252 183.587 57.068 182.979 57.068C182.419 57.068 181.971 57.244 181.635 57.596C181.307 57.948 181.143 58.412 181.143 58.988C181.143 59.572 181.307 60.04 181.635 60.392C181.963 60.744 182.439 60.92 183.063 60.92ZM195.308 65L193.316 61.58H191.996V65H190.904V56.636H193.604C194.236 56.636 194.768 56.744 195.2 56.96C195.64 57.176 195.968 57.468 196.184 57.836C196.4 58.204 196.508 58.624 196.508 59.096C196.508 59.672 196.34 60.18 196.004 60.62C195.676 61.06 195.18 61.352 194.516 61.496L196.616 65H195.308ZM191.996 60.704H193.604C194.196 60.704 194.64 60.56 194.936 60.272C195.232 59.976 195.38 59.584 195.38 59.096C195.38 58.6 195.232 58.216 194.936 57.944C194.648 57.672 194.204 57.536 193.604 57.536H191.996V60.704ZM204.205 61.46C204.205 61.668 204.193 61.888 204.169 62.12H198.913C198.953 62.768 199.173 63.276 199.573 63.644C199.981 64.004 200.473 64.184 201.049 64.184C201.521 64.184 201.913 64.076 202.225 63.86C202.545 63.636 202.769 63.34 202.897 62.972H204.073C203.897 63.604 203.545 64.12 203.017 64.52C202.489 64.912 201.833 65.108 201.049 65.108C200.425 65.108 199.865 64.968 199.369 64.688C198.881 64.408 198.497 64.012 198.217 63.5C197.937 62.98 197.797 62.38 197.797 61.7C197.797 61.02 197.933 60.424 198.205 59.912C198.477 59.4 198.857 59.008 199.345 58.736C199.841 58.456 200.409 58.316 201.049 58.316C201.673 58.316 202.225 58.452 202.705 58.724C203.185 58.996 203.553 59.372 203.809 59.852C204.073 60.324 204.205 60.86 204.205 61.46ZM203.077 61.232C203.077 60.816 202.985 60.46 202.801 60.164C202.617 59.86 202.365 59.632 202.045 59.48C201.733 59.32 201.385 59.24 201.001 59.24C200.449 59.24 199.977 59.416 199.585 59.768C199.201 60.12 198.981 60.608 198.925 61.232H203.077ZM208.095 63.992L210.135 58.424H211.299L208.719 65H207.447L204.867 58.424H206.043L208.095 63.992ZM212.937 57.356C212.729 57.356 212.553 57.284 212.409 57.14C212.265 56.996 212.193 56.82 212.193 56.612C212.193 56.404 212.265 56.228 212.409 56.084C212.553 55.94 212.729 55.868 212.937 55.868C213.137 55.868 213.305 55.94 213.441 56.084C213.585 56.228 213.657 56.404 213.657 56.612C213.657 56.82 213.585 56.996 213.441 57.14C213.305 57.284 213.137 57.356 212.937 57.356ZM213.465 58.424V65H212.373V58.424H213.465ZM221.326 61.46C221.326 61.668 221.314 61.888 221.29 62.12H216.034C216.074 62.768 216.294 63.276 216.694 63.644C217.102 64.004 217.594 64.184 218.17 64.184C218.642 64.184 219.034 64.076 219.346 63.86C219.666 63.636 219.89 63.34 220.018 62.972H221.194C221.018 63.604 220.666 64.12 220.138 64.52C219.61 64.912 218.954 65.108 218.17 65.108C217.546 65.108 216.986 64.968 216.49 64.688C216.002 64.408 215.618 64.012 215.338 63.5C215.058 62.98 214.918 62.38 214.918 61.7C214.918 61.02 215.054 60.424 215.326 59.912C215.598 59.4 215.978 59.008 216.466 58.736C216.962 58.456 217.53 58.316 218.17 58.316C218.794 58.316 219.346 58.452 219.826 58.724C220.306 58.996 220.674 59.372 220.93 59.852C221.194 60.324 221.326 60.86 221.326 61.46ZM220.198 61.232C220.198 60.816 220.106 60.46 219.922 60.164C219.738 59.86 219.486 59.632 219.166 59.48C218.854 59.32 218.506 59.24 218.122 59.24C217.57 59.24 217.098 59.416 216.706 59.768C216.322 60.12 216.102 60.608 216.046 61.232H220.198ZM231.528 58.424L229.476 65H228.348L226.764 59.78L225.18 65H224.052L221.988 58.424H223.104L224.616 63.944L226.248 58.424H227.364L228.96 63.956L230.448 58.424H231.528ZM234.94 65.108C234.436 65.108 233.984 65.024 233.584 64.856C233.184 64.68 232.868 64.44 232.636 64.136C232.404 63.824 232.276 63.468 232.252 63.068H233.38C233.412 63.396 233.564 63.664 233.836 63.872C234.116 64.08 234.48 64.184 234.928 64.184C235.344 64.184 235.672 64.092 235.912 63.908C236.152 63.724 236.272 63.492 236.272 63.212C236.272 62.924 236.144 62.712 235.888 62.576C235.632 62.432 235.236 62.292 234.7 62.156C234.212 62.028 233.812 61.9 233.5 61.772C233.196 61.636 232.932 61.44 232.708 61.184C232.492 60.92 232.384 60.576 232.384 60.152C232.384 59.816 232.484 59.508 232.684 59.228C232.884 58.948 233.168 58.728 233.536 58.568C233.904 58.4 234.324 58.316 234.796 58.316C235.524 58.316 236.112 58.5 236.56 58.868C237.008 59.236 237.248 59.74 237.28 60.38H236.188C236.164 60.036 236.024 59.76 235.768 59.552C235.52 59.344 235.184 59.24 234.76 59.24C234.368 59.24 234.056 59.324 233.824 59.492C233.592 59.66 233.476 59.88 233.476 60.152C233.476 60.368 233.544 60.548 233.68 60.692C233.824 60.828 234 60.94 234.208 61.028C234.424 61.108 234.72 61.2 235.096 61.304C235.568 61.432 235.952 61.56 236.248 61.688C236.544 61.808 236.796 61.992 237.004 62.24C237.22 62.488 237.332 62.812 237.34 63.212C237.34 63.572 237.24 63.896 237.04 64.184C236.84 64.472 236.556 64.7 236.188 64.868C235.828 65.028 235.412 65.108 234.94 65.108ZM238.533 67.232V67.124C239.357 66.276 239.981 65.288 240.405 64.16C240.837 63.032 241.053 61.848 241.053 60.608C241.053 59.336 240.825 58.112 240.369 56.936C239.921 55.752 239.249 54.74 238.353 53.9V53.792H239.493C240.333 54.568 240.977 55.556 241.425 56.756C241.881 57.948 242.109 59.232 242.109 60.608C242.109 61.952 241.893 63.204 241.461 64.364C241.037 65.524 240.441 66.48 239.673 67.232H238.533Z" fill="#4D626B" fill-opacity="0.5"/>
<path d="M117.958 62.2206C117.829 62.3527 117.769 62.5438 117.799 62.7311L118.243 65.3204C118.281 65.5399 118.193 65.762 118.018 65.8888C117.847 66.0204 117.62 66.0362 117.433 65.9309L115.219 64.7152C115.142 64.6721 115.057 64.6489 114.969 64.6463H114.834C114.787 64.6536 114.741 64.6694 114.699 64.6936L112.484 65.9151C112.375 65.973 112.251 65.9935 112.129 65.973C111.833 65.9141 111.636 65.6173 111.684 65.3041L112.129 62.7148C112.159 62.5259 112.099 62.3338 111.97 62.1996L110.164 60.3576C110.013 60.2034 109.961 59.9718 110.03 59.7629C110.097 59.5545 110.268 59.4024 110.474 59.3682L112.959 58.9887C113.148 58.9682 113.314 58.8472 113.399 58.6682L114.494 56.3052C114.52 56.2526 114.553 56.2042 114.594 56.1631L114.639 56.1263C114.662 56.0989 114.689 56.0763 114.719 56.0579L114.774 56.0368L114.859 56H115.069C115.257 56.0205 115.423 56.1389 115.509 56.3158L116.619 58.6682C116.699 58.8403 116.854 58.9598 117.034 58.9887L119.518 59.3682C119.728 59.3998 119.904 59.5524 119.973 59.7629C120.039 59.9739 119.982 60.2055 119.828 60.3576L117.958 62.2206Z" fill="#FFAC37"/>
<defs>
<filter id="filter0_d_49_975" x="0" y="0" width="308" height="142" filterUnits="userSpaceOnUse" color-interpolation-filters="sRGB">
<feFlood flood-opacity="0" result="BackgroundImageFix"/>
<feColorMatrix in="SourceAlpha" type="matrix" values="0 0 0 0 0 0 0 0 0 0 0 0 0 0 0 0 0 0 127 0" result="hardAlpha"/>
<feOffset dy="20"/>
<feGaussianBlur stdDeviation="20"/>
<feColorMatrix type="matrix" values="0 0 0 0 0.0196078 0 0 0 0 0.588235 0 0 0 0 0.870588 0 0 0 0.14 0"/>
<feBlend mode="normal" in2="BackgroundImageFix" result="effect1_dropShadow_49_975"/>
<feBlend mode="normal" in="SourceGraphic" in2="effect1_dropShadow_49_975" result="shape"/>
</filter>
</defs>
</svg>
