<svg width="38" height="39" viewBox="0 0 38 39" fill="none" xmlns="http://www.w3.org/2000/svg">
<path d="M36.5 18C36.5 27.665 28.665 35.5 19 35.5C9.33502 35.5 1.5 27.665 1.5 18C1.5 8.33502 9.33502 0.5 19 0.5C28.665 0.5 36.5 8.33502 36.5 18Z" fill="white" stroke="#E9E9E9"/>
<g filter="url(#filter0_d_49_3364)">
<path d="M25.779 13.6044C23.5733 11.9541 21.4602 12.0003 21.4602 12.0003L21.2442 12.247C23.8664 13.0337 25.0849 14.1905 25.0849 14.1905C21.3335 12.125 16.5549 12.1398 12.6528 14.1905C12.6528 14.1905 13.9176 12.972 16.694 12.1852L16.5398 12.0001C16.5398 12.0001 14.4421 11.9539 12.221 13.6042C12.221 13.6042 10 17.5991 10 22.5194C10 22.5194 11.2956 24.7405 14.7045 24.8485C14.7045 24.8485 15.2752 24.1698 15.7379 23.5837C13.7789 22.9977 13.0386 21.7792 13.0386 21.7792C14.2693 22.5492 15.5137 23.0312 17.0644 23.337C19.5875 23.8564 22.7258 23.3224 25.0696 21.7792C25.0696 21.7792 24.2984 23.0286 22.2778 23.5993C22.7405 24.17 23.2959 24.8331 23.2959 24.8331C26.7044 24.7253 28 22.5043 28 22.5196C28 17.5993 25.779 13.6044 25.779 13.6044ZM16.1233 21.0853C15.2595 21.0853 14.5501 20.3295 14.5501 19.3885C14.6132 17.1353 17.6493 17.1423 17.6967 19.3885C17.6965 20.3295 17.0025 21.0853 16.1233 21.0853ZM21.7532 21.0853C20.8894 21.0853 20.18 20.3295 20.18 19.3885C20.2493 17.1397 23.2476 17.1387 23.3266 19.3885C23.3264 20.3295 22.6323 21.0853 21.7532 21.0853Z" fill="#001E29"/>
</g>
<defs>
<filter id="filter0_d_49_3364" x="0" y="6" width="38" height="32.8486" filterUnits="userSpaceOnUse" color-interpolation-filters="sRGB">
<feFlood flood-opacity="0" result="BackgroundImageFix"/>
<feColorMatrix in="SourceAlpha" type="matrix" values="0 0 0 0 0 0 0 0 0 0 0 0 0 0 0 0 0 0 127 0" result="hardAlpha"/>
<feOffset dy="4"/>
<feGaussianBlur stdDeviation="5"/>
<feComposite in2="hardAlpha" operator="out"/>
<feColorMatrix type="matrix" values="0 0 0 0 0.466667 0 0 0 0 0.466667 0 0 0 0 0.466667 0 0 0 0.25 0"/>
<feBlend mode="normal" in2="BackgroundImageFix" result="effect1_dropShadow_49_3364"/>
<feBlend mode="normal" in="SourceGraphic" in2="effect1_dropShadow_49_3364" result="shape"/>
</filter>
</defs>
</svg>
