<svg width="82" height="82" viewBox="0 0 82 82" fill="none" xmlns="http://www.w3.org/2000/svg">
<path d="M56.0384 39.3254L50.7233 42.0582L50.4011 48.0059L55.3941 51.2208L60.7092 48.4881L61.0313 42.5404L56.0384 39.3254Z" stroke="#00AEEF" stroke-width="1.5" stroke-miterlimit="10" stroke-linecap="round" stroke-linejoin="round"/>
<path d="M61.3523 30.4843L56.0372 33.217L55.7151 39.1647L60.7081 42.3797L66.0232 39.6469L66.3453 33.6992L61.3523 30.4843Z" stroke="#00AEEF" stroke-width="1.5" stroke-miterlimit="10" stroke-linecap="round" stroke-linejoin="round"/>
<path d="M66.3452 39.4862L61.0301 42.2189L60.708 48.1666L65.862 51.3816L71.1772 48.6489L71.3382 42.7012L66.3452 39.4862Z" stroke="#00AEEF" stroke-width="1.5" stroke-miterlimit="10" stroke-linecap="round" stroke-linejoin="round"/>
<path d="M61.0298 21C51.0447 21 42.8312 28.3944 41.3818 37.8786L37.9998 40.6113L41.3818 43.9871C42.8312 53.632 51.0447 60.8657 61.0298 60.8657C71.9811 60.8657 80.9998 52.0245 80.9998 40.9328C80.9998 29.8412 72.1421 21 61.0298 21Z" stroke="#00AEEF" stroke-width="1.5" stroke-miterlimit="10" stroke-linecap="round" stroke-linejoin="round"/>
<path d="M33.161 34.1899C36.7685 40.6087 35.3568 48.2799 23.7501 56.5774C22.809 57.2036 21.8679 57.8298 20.7699 58.4561C19.9857 58.9257 19.2015 59.3954 18.2604 60.0216C14.9666 61.9003 12.1433 64.4052 10.1043 67.3797C7.75153 70.824 5.86935 75.3641 6.96729 81.0001H1.32075C0.222811 75.3641 2.10499 70.824 4.45772 67.3797C6.49674 64.4052 9.32001 61.9003 12.6138 60.0216C14.6529 58.9257 16.3782 57.6733 17.9467 56.5774C19.0446 55.7946 19.9857 55.0118 20.9268 54.3856C34.1021 43.5833 30.024 34.0334 20.9268 26.8318" stroke="#00AEEF" stroke-width="1.5" stroke-miterlimit="10" stroke-linecap="round" stroke-linejoin="round"/>
<path d="M30.6516 30.7456C28.7692 28.5538 26.4163 26.5186 23.5928 24.7965" stroke="#00AEEF" stroke-width="1.5" stroke-miterlimit="10" stroke-linecap="round" stroke-linejoin="round"/>
<path d="M17.946 24.6399C16.5344 23.7006 15.1228 22.7613 13.5543 21.9785C-1.81687 13.5245 1.6338 1 1.6338 1H7.28034C7.28034 1 3.82967 13.5245 19.2008 21.9785C19.6714 22.2916 20.2988 22.6047 20.7693 22.9178" stroke="#00AEEF" stroke-width="1.5" stroke-miterlimit="10" stroke-linecap="round" stroke-linejoin="round"/>
<path d="M23.5934 56.4209C25.1619 57.5168 27.0441 58.7692 28.9262 59.8651C32.2201 61.7438 35.0433 64.2487 37.0824 67.2232C39.4351 70.6675 41.3173 75.2076 40.2193 80.8436H34.4159C35.5139 75.2076 33.6317 70.6675 31.279 67.2232C29.2399 64.2487 26.4167 61.7438 23.1229 59.8651C22.1818 59.3955 21.3975 58.9258 20.6133 58.2996" stroke="#00AEEF" stroke-width="1.5" stroke-miterlimit="10" stroke-linecap="round" stroke-linejoin="round"/>
<path d="M6.65356 40.2955C6.65356 34.1898 11.5159 28.8669 17.9466 24.6399C18.8877 24.0137 19.8288 23.3875 20.7699 22.9178C21.2405 22.6047 21.8679 22.2916 22.3384 21.9785C37.7095 13.5245 34.2589 1 34.2589 1H40.0623C40.0623 1 43.5129 13.5245 28.1418 21.9785C26.5733 22.7613 25.1617 23.7006 23.75 24.6399C22.8089 25.2661 21.8679 26.0489 20.9268 26.6751C11.8296 33.8767 7.7515 43.4266 20.9268 54.229" stroke="#00AEEF" stroke-width="1.5" stroke-miterlimit="10" stroke-linecap="round" stroke-linejoin="round"/>
<path d="M17.9473 56.5773C12.9277 52.9765 9.79043 49.5323 8.06494 46.2446" stroke="#00AEEF" stroke-width="1.5" stroke-miterlimit="10" stroke-linecap="round" stroke-linejoin="round"/>
<path d="M26.5737 33.8767H18.5737" stroke="#00AEEF" stroke-width="1.5" stroke-miterlimit="10" stroke-linecap="round" stroke-linejoin="round"/>
<path d="M28.7685 40.2954H12.4563" stroke="#00AEEF" stroke-width="1.5" stroke-miterlimit="10" stroke-linecap="round" stroke-linejoin="round"/>
<path d="M22.6523 46.7144H14.6523" stroke="#00AEEF" stroke-width="1.5" stroke-miterlimit="10" stroke-linecap="round" stroke-linejoin="round"/>
<path d="M6.96704 5.54016H34.4155" stroke="#00AEEF" stroke-width="1.5" stroke-miterlimit="10" stroke-linecap="round" stroke-linejoin="round"/>
<path d="M6.96704 76.1467H34.4155" stroke="#00AEEF" stroke-width="1.5" stroke-miterlimit="10" stroke-linecap="round" stroke-linejoin="round"/>
</svg>
