<svg width="82" height="82" viewBox="0 0 82 82" fill="none" xmlns="http://www.w3.org/2000/svg">
<path d="M38.9211 72.1824H57.4815C58.4416 72.1824 59.0816 72.8237 59.0816 73.7856V74.5872C59.0816 78.1142 56.2015 81 52.6814 81H32.521C29.0009 81 26.1208 78.1142 26.1208 74.5872V73.7856C26.1208 72.8237 26.7609 72.1824 27.7209 72.1824H32.361" stroke="#00AEEF" stroke-width="1.5" stroke-miterlimit="10" stroke-linecap="round"/>
<path d="M11.08 49.8977C13 50.6993 15.2401 51.1803 17.4801 51.1803C21.8002 51.1803 25.8003 49.4167 28.8404 46.531C32.0404 43.4849 33.9605 39.3165 33.9605 34.5069C33.9605 25.3686 26.6003 17.9939 17.6401 17.9939C8.67992 17.9939 0.999756 25.529 0.999756 34.6672C0.999756 39.3165 2.9198 43.4849 5.95986 46.531" stroke="#00AEEF" stroke-width="1.5" stroke-miterlimit="10" stroke-linecap="round"/>
<path d="M14.12 30.8196C16.5943 30.8196 18.6001 28.9534 18.6001 26.6512C18.6001 24.3491 16.5943 22.4829 14.12 22.4829C11.6457 22.4829 9.63989 24.3491 9.63989 26.6512C9.63989 28.9534 11.6457 30.8196 14.12 30.8196Z" stroke="#00AEEF" stroke-width="1.5" stroke-miterlimit="10" stroke-linecap="round"/>
<path d="M12.6807 27.2925L15.4007 26.3306" stroke="#00AEEF" stroke-width="1.5" stroke-miterlimit="10" stroke-linecap="round"/>
<path d="M24.2007 38.515C27.2936 38.515 29.8008 36.1463 29.8008 33.2244C29.8008 30.3025 27.2936 27.9338 24.2007 27.9338C21.1078 27.9338 18.6006 30.3025 18.6006 33.2244C18.6006 36.1463 21.1078 38.515 24.2007 38.515Z" stroke="#00AEEF" stroke-width="1.5" stroke-miterlimit="10" stroke-linecap="round"/>
<path d="M22.2791 33.3847L25.9591 33.2244" stroke="#00AEEF" stroke-width="1.5" stroke-miterlimit="10" stroke-linecap="round"/>
<path d="M19.8798 47.3325C21.7356 47.3325 23.2399 45.9688 23.2399 44.2864C23.2399 42.6041 21.7356 41.2404 19.8798 41.2404C18.0241 41.2404 16.5198 42.6041 16.5198 44.2864C16.5198 45.9688 18.0241 47.3325 19.8798 47.3325Z" stroke="#00AEEF" stroke-width="1.5" stroke-miterlimit="10" stroke-linecap="round"/>
<path d="M18.9204 44.7674L20.8405 43.9658" stroke="#00AEEF" stroke-width="1.5" stroke-miterlimit="10" stroke-linecap="round"/>
<path d="M9.64041 41.4007C12.0263 41.4007 13.9605 39.6062 13.9605 37.3927C13.9605 35.1791 12.0263 33.3846 9.64041 33.3846C7.25448 33.3846 5.32031 35.1791 5.32031 37.3927C5.32031 39.6062 7.25448 41.4007 9.64041 41.4007Z" stroke="#00AEEF" stroke-width="1.5" stroke-miterlimit="10" stroke-linecap="round"/>
<path d="M8.20068 38.0339L10.9207 36.9116" stroke="#00AEEF" stroke-width="1.5" stroke-miterlimit="10" stroke-linecap="round"/>
<path d="M28.6802 46.531L33.0003 50.8597L34.4403 64.8076" stroke="#00AEEF" stroke-width="1.5" stroke-miterlimit="10" stroke-linecap="round"/>
<path d="M70.7602 20.2385L68.2002 24.8878" stroke="#00AEEF" stroke-width="1.5" stroke-miterlimit="10" stroke-linecap="round"/>
<path d="M65.9606 28.5752L56.2003 45.7295C54.9203 47.974 52.6803 49.0962 50.2802 49.0962C49.1602 49.0962 47.8802 48.7756 46.7601 48.1343C43.7201 46.2105 42.6 42.2024 44.3601 38.996L55.8803 17.8337L58.2804 13.3447" stroke="#00AEEF" stroke-width="1.5" stroke-miterlimit="10" stroke-linecap="round"/>
<path d="M44.5194 45.7295L43.2394 47.8137C42.4394 49.2565 42.9194 51.0201 44.3594 51.8217C45.6395 52.463 47.2395 52.1423 48.0395 50.8598L49.3195 48.9359" stroke="#00AEEF" stroke-width="1.5" stroke-miterlimit="10" stroke-linecap="round"/>
<path d="M44.3601 51.9819L40.52 58.2344" stroke="#00AEEF" stroke-width="1.5" stroke-miterlimit="10" stroke-linecap="round"/>
<path d="M55.8799 17.8337L59.72 19.7576" stroke="#00AEEF" stroke-width="1.5" stroke-miterlimit="10" stroke-linecap="round"/>
<path d="M52.8401 24.8877L56.8402 26.8115" stroke="#00AEEF" stroke-width="1.5" stroke-miterlimit="10" stroke-linecap="round"/>
<path d="M49.3198 31.1403L53.1599 33.0641" stroke="#00AEEF" stroke-width="1.5" stroke-miterlimit="10" stroke-linecap="round"/>
<path d="M45.6406 37.3928L49.6407 39.3167" stroke="#00AEEF" stroke-width="1.5" stroke-miterlimit="10" stroke-linecap="round"/>
<path d="M54.9204 11.1001L74.2808 22.3225" stroke="#00AEEF" stroke-width="1.5" stroke-miterlimit="10" stroke-linecap="round"/>
<path d="M59.0791 1L80.9996 13.6653" stroke="#00AEEF" stroke-width="1.5" stroke-miterlimit="10" stroke-linecap="round"/>
<path d="M66.9203 5.48901L61.6401 14.9479" stroke="#00AEEF" stroke-width="1.5" stroke-miterlimit="10" stroke-linecap="round"/>
<path d="M72.8412 9.17627L67.561 18.3145" stroke="#00AEEF" stroke-width="1.5" stroke-miterlimit="10" stroke-linecap="round"/>
</svg>
