<svg width="170" height="68" viewBox="0 0 170 68" fill="none" xmlns="http://www.w3.org/2000/svg">
<path d="M51.8182 0H5.18182C2.31998 0 0 2.32402 0 5.19084V62.8092C0 65.676 2.31998 68 5.18182 68H51.8182C54.68 68 57 65.676 57 62.8092V5.19084C57 2.32402 54.68 0 51.8182 0Z" fill="url(#paint0_linear_49_97)"/>
<path d="M10.3641 57.7902V10.3816H32.5378C41.5396 10.3816 46.0404 14.0616 46.0404 21.4214C46.0404 26.8143 43.1059 30.6709 37.2371 32.9921C43.503 34.1634 46.636 37.7551 46.636 43.7667C46.636 53.1157 41.7049 57.7907 31.8422 57.7907L10.3641 57.7902ZM31.4787 50.1651C35.3618 50.1651 37.3035 48.176 37.3035 44.1977C37.3035 39.2689 34.4021 36.8047 28.5995 36.8047H25.9519V31.1356C33.2327 29.92 36.8732 26.8699 36.8732 21.9855C36.8732 19.3333 35.2405 18.0073 31.9752 18.0073H19.1346V50.1652L31.4787 50.1651Z" fill="#FAFAFA"/>
<path d="M71.3585 24.4394C73.3157 24.4394 74.2943 25.2237 74.2943 26.7924C74.2943 27.6925 73.8762 28.361 73.0398 28.7977C73.6089 28.9671 74.0335 29.2634 74.3137 29.6868C74.594 30.1101 74.7341 30.6204 74.7341 31.2175C74.7341 32.0731 74.4344 32.7483 73.8352 33.2429C73.236 33.7376 72.4491 33.9849 71.4749 33.9849H67V24.4394H71.3585ZM71.0998 28.3031C71.9189 28.3031 72.3285 27.9243 72.3285 27.1667C72.3285 26.4359 71.8715 26.0705 70.9576 26.0705H69.0305V28.3031H71.0998ZM71.2162 32.3539C72.2078 32.3539 72.7035 31.935 72.7035 31.0972C72.7035 30.1881 72.2207 29.7336 71.255 29.7336H69.0305V32.3539H71.2162ZM78.1355 24.4394V28.1025H81.8732V24.4394H83.9037V33.9849H81.8732V29.8672H78.1355V33.9849H76.105V24.4394H78.1355ZM87.719 24.4394V33.9849H85.6885V24.4394H87.719ZM96.2808 24.2122C97.4103 24.2122 98.3091 24.4796 98.9773 25.0143C99.6456 25.5491 99.9797 26.3067 99.9797 27.287H98.0138C97.9879 26.8058 97.8306 26.4448 97.5417 26.2041C97.2529 25.9635 96.8067 25.8432 96.2032 25.8432C95.7807 25.8432 95.4401 25.939 95.1814 26.1306C94.9228 26.3222 94.7934 26.5874 94.7934 26.9261C94.7934 27.2024 94.8732 27.4029 95.0327 27.5277C95.1922 27.6524 95.4185 27.7639 95.7117 27.8619C96.0049 27.9599 96.5179 28.1025 97.2508 28.2897C98.0181 28.4858 98.6087 28.6997 99.0226 28.9314C99.4365 29.1631 99.7512 29.4595 99.9667 29.8204C100.182 30.1814 100.29 30.6248 100.29 31.1507C100.29 31.7567 100.135 32.2959 99.8245 32.7683C99.5141 33.2407 99.0614 33.5994 98.4665 33.8445C97.8715 34.0896 97.199 34.2121 96.4489 34.2121C95.3021 34.2121 94.3602 33.9158 93.623 33.3231C92.8858 32.7304 92.5172 31.9171 92.5172 30.8833V30.8164H94.483C94.483 31.3779 94.6684 31.8124 95.0392 32.1199C95.4099 32.4274 95.9014 32.5811 96.5136 32.5811C97.0568 32.5811 97.4943 32.4809 97.8263 32.2803C98.1582 32.0798 98.3242 31.7834 98.3242 31.3913C98.3242 31.1328 98.2337 30.9145 98.0526 30.7362C97.8715 30.5579 97.6301 30.4131 97.3284 30.3017C97.0266 30.1903 96.5179 30.0499 95.8022 29.8806C94.9745 29.6667 94.3709 29.4394 93.9916 29.1988C93.6123 28.9581 93.3234 28.6663 93.1251 28.3231C92.9267 27.98 92.8276 27.5678 92.8276 27.0865C92.8276 26.4893 92.9936 25.9679 93.3255 25.5223C93.6575 25.0767 94.0908 24.7469 94.6253 24.533C95.1599 24.3191 95.7117 24.2122 96.2808 24.2122ZM108.335 24.4394V26.2041H105.567V33.9849H103.536V26.2041H100.769V24.4394H108.335ZM116.301 24.4394V26.2041H111.426V28.2496H115.9V29.8806H111.426V32.2202H116.405V33.9849H109.395V24.4394H116.301ZM120.634 24.4394L122.794 31.0036H122.82L124.863 24.4394H127.721V33.9849H125.82V27.2202H125.794L123.531 33.9849H121.966L119.703 27.287H119.677V33.9849H117.776V24.4394H120.634ZM133.645 24.2122C134.723 24.2122 135.628 24.5263 136.361 25.1547C137.094 25.783 137.516 26.6142 137.628 27.648H135.662C135.593 27.1756 135.365 26.779 134.977 26.4582C134.589 26.1373 134.145 25.9769 133.645 25.9769C132.852 25.9769 132.235 26.271 131.795 26.8592C131.356 27.4475 131.136 28.2452 131.136 29.2523C131.136 30.2327 131.358 31.0103 131.802 31.5852C132.246 32.16 132.86 32.4475 133.645 32.4475C134.231 32.4475 134.705 32.2625 135.067 31.8926C135.43 31.5228 135.654 30.9947 135.74 30.3084H137.706C137.602 31.5206 137.182 32.4742 136.445 33.1694C135.708 33.8646 134.774 34.2122 133.645 34.2122C132.291 34.2122 131.196 33.7509 130.36 32.8285C129.523 31.906 129.105 30.7139 129.105 29.2523C129.105 27.7727 129.519 26.5628 130.347 25.6226C131.175 24.6824 132.274 24.2122 133.645 24.2122ZM145.996 24.4394V26.2041H141.12V28.2496H145.595V29.8806H141.12V32.2202H146.099V33.9849H139.09V24.4394H145.996ZM149.501 24.4394V32.2202H154.002V33.9849H147.47V24.4394H149.501ZM157.17 24.4394V32.2202H161.671V33.9849H155.14V24.4394H157.17ZM165.991 24.2122C167.12 24.2122 168.019 24.4796 168.687 25.0143C169.356 25.5491 169.69 26.3067 169.69 27.287H167.724C167.698 26.8058 167.541 26.4448 167.252 26.2041C166.963 25.9635 166.517 25.8432 165.913 25.8432C165.491 25.8432 165.15 25.939 164.891 26.1306C164.633 26.3222 164.503 26.5874 164.503 26.9261C164.503 27.2024 164.583 27.4029 164.743 27.5277C164.902 27.6524 165.128 27.7639 165.422 27.8619C165.715 27.9599 166.228 28.1025 166.961 28.2897C167.728 28.4858 168.319 28.6997 168.733 28.9314C169.146 29.1631 169.461 29.4595 169.677 29.8204C169.892 30.1814 170 30.6248 170 31.1507C170 31.7567 169.845 32.2959 169.534 32.7683C169.224 33.2407 168.771 33.5994 168.176 33.8445C167.581 34.0896 166.909 34.2121 166.159 34.2121C165.012 34.2121 164.07 33.9158 163.333 33.3231C162.596 32.7304 162.227 31.9171 162.227 30.8833V30.8164H164.193C164.193 31.3779 164.378 31.8124 164.749 32.1199C165.12 32.4274 165.611 32.5811 166.224 32.5811C166.767 32.5811 167.204 32.4809 167.536 32.2803C167.868 32.0798 168.034 31.7834 168.034 31.3913C168.034 31.1328 167.944 30.9145 167.763 30.7362C167.581 30.5579 167.34 30.4131 167.038 30.3017C166.737 30.1903 166.228 30.0499 165.512 29.8806C164.684 29.6667 164.081 29.4394 163.702 29.1988C163.322 28.9581 163.033 28.6663 162.835 28.3231C162.637 27.98 162.538 27.5678 162.538 27.0865C162.538 26.4893 162.704 25.9679 163.035 25.5223C163.367 25.0767 163.801 24.7469 164.335 24.533C164.87 24.3191 165.422 24.2122 165.991 24.2122Z" fill="url(#paint1_linear_49_97)"/>
<path d="M69.6107 39.265L71.2243 44.0377H70.2393L69.9129 42.9749H68.2993L67.9609 44.0377H67L68.6378 39.265H69.6107ZM69.1091 40.4415L68.5471 42.1928H69.6651L69.1212 40.4415H69.1091ZM73.4483 39.265C74.0607 39.265 74.5422 39.4744 74.8927 39.8933C75.2432 40.3122 75.4184 40.8893 75.4184 41.6246C75.4184 42.3867 75.2422 42.9794 74.8896 43.4027C74.5371 43.826 74.0647 44.0377 73.4725 44.0377H71.599V39.265H73.4483ZM73.3879 43.1554C73.7303 43.1554 73.9963 43.0306 74.1856 42.781C74.3749 42.5315 74.4696 42.1772 74.4696 41.7182C74.4696 41.1924 74.3679 40.7991 74.1644 40.5384C73.961 40.2777 73.6477 40.1474 73.2247 40.1474H72.5478V43.1554H73.3879ZM76.5909 39.265L77.5518 42.6206H77.5638L78.5368 39.265H79.5159L78.0836 44.0377H77.0139L75.6118 39.265H76.5909ZM81.758 39.265L83.3715 44.0377H82.3865L82.0601 42.9749H80.4465L80.1081 44.0377H79.1472L80.785 39.265H81.758ZM81.2564 40.4415L80.6943 42.1928H81.8124L81.2684 40.4415H81.2564ZM84.689 39.265L86.4899 42.4669H86.502V39.265H87.3904V44.0377H86.4416L84.6467 40.8425H84.6346V44.0377H83.7462V39.265H84.689ZM90.1583 39.1514C90.6619 39.1514 91.0849 39.3085 91.4274 39.6226C91.7699 39.9368 91.9673 40.3524 92.0196 40.8693H91.101C91.0688 40.6331 90.962 40.4348 90.7807 40.2744C90.5994 40.1139 90.3919 40.0337 90.1583 40.0337C89.7876 40.0337 89.4995 40.1808 89.2941 40.4749C89.0886 40.769 88.9859 41.1679 88.9859 41.6714C88.9859 42.1616 89.0896 42.5504 89.2971 42.8379C89.5046 43.1253 89.7917 43.269 90.1583 43.269C90.4322 43.269 90.6538 43.1765 90.823 42.9916C90.9923 42.8067 91.097 42.5426 91.1373 42.1995H92.0559C92.0076 42.8055 91.8111 43.2824 91.4667 43.63C91.1222 43.9776 90.686 44.1514 90.1583 44.1514C89.5257 44.1514 89.0141 43.9208 88.6233 43.4595C88.2324 42.9983 88.037 42.4022 88.037 41.6714C88.037 40.9316 88.2304 40.3267 88.6172 39.8566C89.004 39.3865 89.5177 39.1514 90.1583 39.1514ZM95.9297 39.265V40.1474H93.6514V41.1701H95.7424V41.9856H93.6514V43.1554H95.9781V44.0377H92.7025V39.265H95.9297ZM98.4679 39.265C99.0803 39.265 99.5618 39.4744 99.9123 39.8933C100.263 40.3122 100.438 40.8893 100.438 41.6246C100.438 42.3867 100.262 42.9794 99.9093 43.4027C99.5568 43.826 99.0844 44.0377 98.4921 44.0377H96.6187V39.265H98.4679ZM98.4075 43.1554C98.75 43.1554 99.0159 43.0306 99.2052 42.781C99.3946 42.5315 99.4893 42.1772 99.4893 41.7182C99.4893 41.1924 99.3875 40.7991 99.1841 40.5384C98.9806 40.2777 98.6674 40.1474 98.2443 40.1474H97.5675V43.1554H98.4075ZM104.264 39.1514C104.791 39.1514 105.211 39.2851 105.524 39.5524C105.836 39.8198 105.992 40.1986 105.992 40.6888H105.073C105.061 40.4482 104.988 40.2677 104.853 40.1474C104.718 40.027 104.509 39.9669 104.227 39.9669C104.03 39.9669 103.871 40.0148 103.75 40.1106C103.629 40.2064 103.569 40.339 103.569 40.5083C103.569 40.6465 103.606 40.7467 103.68 40.8091C103.755 40.8715 103.861 40.9272 103.998 40.9762C104.135 41.0252 104.374 41.0965 104.717 41.1901C105.075 41.2882 105.351 41.3951 105.545 41.511C105.738 41.6268 105.885 41.775 105.986 41.9555C106.087 42.136 106.137 42.3577 106.137 42.6206C106.137 42.9236 106.064 43.1932 105.919 43.4294C105.774 43.6656 105.563 43.845 105.285 43.9675C105.007 44.0901 104.693 44.1514 104.342 44.1514C103.806 44.1514 103.366 44.0032 103.022 43.7068C102.677 43.4105 102.505 43.0038 102.505 42.4869V42.4535H103.424C103.424 42.7342 103.51 42.9515 103.683 43.1052C103.857 43.259 104.086 43.3359 104.372 43.3359C104.626 43.3359 104.831 43.2857 104.986 43.1855C105.141 43.0852 105.218 42.937 105.218 42.7409C105.218 42.6117 105.176 42.5025 105.091 42.4134C105.007 42.3243 104.894 42.2519 104.753 42.1962C104.612 42.1405 104.374 42.0703 104.04 41.9856C103.653 41.8786 103.371 41.765 103.194 41.6447C103.017 41.5244 102.882 41.3784 102.789 41.2069C102.696 41.0353 102.65 40.8292 102.65 40.5885C102.65 40.29 102.728 40.0293 102.883 39.8065C103.038 39.5836 103.24 39.4188 103.49 39.3118C103.74 39.2048 103.998 39.1514 104.264 39.1514ZM109.896 39.265V40.1474H108.603V44.0377H107.654V40.1474H106.361V39.265H109.896ZM113.619 39.265V40.1474H111.34V41.1701H113.431V41.9856H111.34V43.1554H113.667V44.0377H110.392V39.265H113.619ZM115.643 39.265L116.653 42.5471H116.665L117.619 39.265H118.955V44.0377H118.067V40.6554H118.055L116.997 44.0377H116.266L115.208 40.6888H115.196V44.0377H114.308V39.265H115.643ZM123.403 39.1514C123.907 39.1514 124.33 39.3085 124.672 39.6226C125.015 39.9368 125.212 40.3524 125.264 40.8693H124.346C124.314 40.6331 124.207 40.4348 124.025 40.2744C123.844 40.1139 123.637 40.0337 123.403 40.0337C123.032 40.0337 122.744 40.1808 122.539 40.4749C122.333 40.769 122.231 41.1679 122.231 41.6714C122.231 42.1616 122.334 42.5504 122.542 42.8379C122.749 43.1253 123.036 43.269 123.403 43.269C123.677 43.269 123.899 43.1765 124.068 42.9916C124.237 42.8067 124.342 42.5426 124.382 42.1995H125.301C125.252 42.8055 125.056 43.2824 124.711 43.63C124.367 43.9776 123.931 44.1514 123.403 44.1514C122.77 44.1514 122.259 43.9208 121.868 43.4595C121.477 42.9983 121.282 42.4022 121.282 41.6714C121.282 40.9316 121.475 40.3267 121.862 39.8566C122.249 39.3865 122.762 39.1514 123.403 39.1514ZM129.174 39.265V40.1474H126.896V41.1701H128.987V41.9856H126.896V43.1554H129.223V44.0377H125.947V39.265H129.174ZM130.812 39.265V43.1554H132.915V44.0377H129.863V39.265H130.812ZM134.396 39.265V43.1554H136.499V44.0377H133.447V39.265H134.396ZM141.908 39.265V40.1474H140.615V44.0377H139.666V40.1474H138.372V39.265H141.908ZM143.352 39.265V41.0966H145.099V39.265H146.048V44.0377H145.099V41.9789H143.352V44.0377H142.403V39.265H143.352ZM150.109 39.265V40.1474H147.83V41.1701H149.921V41.9856H147.83V43.1554H150.157V44.0377H146.882V39.265H150.109ZM153.124 39.265C153.487 39.265 153.788 39.3887 154.028 39.636C154.268 39.8833 154.387 40.1986 154.387 40.5818C154.387 41.179 154.16 41.5778 153.705 41.7784V41.7917C153.858 41.8408 153.977 41.9221 154.064 42.0357C154.151 42.1494 154.216 42.2819 154.261 42.4335C154.305 42.585 154.333 42.8278 154.345 43.1621C154.361 43.5988 154.418 43.8907 154.514 44.0377H153.566C153.513 43.8907 153.473 43.6144 153.445 43.2089C153.412 42.781 153.342 42.5014 153.233 42.37C153.124 42.2385 152.947 42.1728 152.701 42.1728H151.746V44.0377H150.798V39.265H153.124ZM152.792 41.4241C152.993 41.4241 153.152 41.374 153.266 41.2737C153.381 41.1734 153.439 40.9963 153.439 40.7423C153.439 40.5016 153.382 40.3312 153.269 40.2309C153.157 40.1306 152.995 40.0805 152.786 40.0805H151.746V41.4241H152.792ZM157.312 39.265L158.926 44.0377H157.941L157.615 42.9749H156.001L155.663 44.0377H154.702L156.339 39.265H157.312ZM156.811 40.4415L156.249 42.1928H157.367L156.823 40.4415H156.811ZM161.253 39.265C161.712 39.265 162.075 39.4032 162.341 39.6794C162.606 39.9557 162.739 40.3278 162.739 40.7958C162.739 41.2681 162.606 41.6413 162.341 41.9154C162.075 42.1895 161.714 42.3265 161.259 42.3265H160.25V44.0377H159.301V39.265H161.253ZM161.005 41.511C161.279 41.511 161.483 41.4553 161.618 41.3439C161.753 41.2325 161.821 41.0498 161.821 40.7958C161.821 40.5507 161.755 40.3702 161.624 40.2543C161.493 40.1384 161.289 40.0805 161.011 40.0805H160.25V41.511H161.005ZM163.93 39.265L164.939 41.15L165.942 39.265H167L165.398 42.2062V44.0377H164.45V42.1794L162.86 39.265H163.93Z" fill="url(#paint2_linear_49_97)"/>
<defs>
<linearGradient id="paint0_linear_49_97" x1="0" y1="0" x2="57" y2="0" gradientUnits="userSpaceOnUse">
<stop stop-color="#2D388A"/>
<stop offset="1" stop-color="#00AEEF"/>
</linearGradient>
<linearGradient id="paint1_linear_49_97" x1="67" y1="24.2122" x2="170" y2="24.2122" gradientUnits="userSpaceOnUse">
<stop stop-color="#2D388A"/>
<stop offset="1" stop-color="#00AEEF"/>
</linearGradient>
<linearGradient id="paint2_linear_49_97" x1="67" y1="39.1514" x2="167" y2="39.1514" gradientUnits="userSpaceOnUse">
<stop stop-color="#2D388A"/>
<stop offset="1" stop-color="#00AEEF"/>
</linearGradient>
</defs>
</svg>
