<svg width="18" height="12" viewBox="0 0 18 12" fill="none" xmlns="http://www.w3.org/2000/svg">
<path d="M6.03031 1.00195H5.57031" stroke="#00AEEF" stroke-miterlimit="10" stroke-linecap="round" stroke-linejoin="round"/>
<path d="M9.03031 2.55273H8.57031" stroke="#00AEEF" stroke-miterlimit="10" stroke-linecap="round" stroke-linejoin="round"/>
<path d="M7.56 1.00195H15.67C16.4 1.00195 17 1.56195 17 2.25195V9.76195C17 10.452 16.4 11.012 15.67 11.012H2.33C1.6 11.012 1 10.452 1 9.76195V2.22195C1 1.55195 1.58 1.00195 2.3 1.00195H4.04" stroke="#00AEEF" stroke-miterlimit="10" stroke-linecap="round" stroke-linejoin="round"/>
<path d="M16.48 1.26195L15.1 2.56195L11.41 6.00195L9.91001 7.41195C9.40001 7.89195 8.58001 7.89195 8.07001 7.41195L6.57001 6.00195L1.51001 1.25195" stroke="#00AEEF" stroke-miterlimit="10" stroke-linecap="round" stroke-linejoin="round"/>
<path d="M16.4799 10.742L11.4099 6.00195" stroke="#00AEEF" stroke-miterlimit="10" stroke-linecap="round" stroke-linejoin="round"/>
<path d="M6.57001 6.00195L1.51001 10.742" stroke="#00AEEF" stroke-miterlimit="10" stroke-linecap="round" stroke-linejoin="round"/>
<path d="M2.25 11.0029L16 10.9629" stroke="#00AEEF" stroke-miterlimit="10" stroke-linecap="round" stroke-linejoin="round"/>
<path d="M15.0904 2.55273H10.6504" stroke="#00AEEF" stroke-miterlimit="10" stroke-linecap="round" stroke-linejoin="round"/>
</svg>
