<svg width="82" height="82" viewBox="0 0 82 82" fill="none" xmlns="http://www.w3.org/2000/svg">
<path d="M7.60955 5.42134C10.088 3.76331 13.1173 2.65796 16.422 2.65796C24.959 2.65796 31.8437 9.42825 31.8437 17.7184C31.8437 26.0086 24.959 32.7789 16.422 32.7789C7.88494 32.7789 1.00024 26.0086 1.00024 17.7184C1.00024 14.126 2.23949 10.9481 4.3049 8.3229" stroke="#00AEEF" stroke-width="1.5" stroke-miterlimit="10" stroke-linecap="round" stroke-linejoin="round"/>
<path d="M52.9106 32.6407C54.6597 32.6407 56.0776 31.2179 56.0776 29.4628C56.0776 27.7077 54.6597 26.2849 52.9106 26.2849C51.1615 26.2849 49.7437 27.7077 49.7437 29.4628C49.7437 31.2179 51.1615 32.6407 52.9106 32.6407Z" stroke="#00AEEF" stroke-width="1.5" stroke-miterlimit="10" stroke-linecap="round" stroke-linejoin="round"/>
<path d="M52.911 37.7529C57.5499 37.7529 61.3104 34.1032 61.3104 29.601C61.3104 25.0987 57.5499 21.449 52.911 21.449C48.2722 21.449 44.5117 25.0987 44.5117 29.601C44.5117 34.1032 48.2722 37.7529 52.911 37.7529Z" stroke="#00AEEF" stroke-width="1.5" stroke-miterlimit="10" stroke-linecap="round" stroke-linejoin="round"/>
<path d="M16.5593 32.9171V51.1555C16.5593 52.6753 17.7986 53.9188 19.3132 53.9188H31.1549" stroke="#00AEEF" stroke-width="1.5" stroke-miterlimit="10" stroke-linecap="round" stroke-linejoin="round"/>
<path d="M14.7698 9.42822H18.3498" stroke="#00AEEF" stroke-width="1.5" stroke-miterlimit="10" stroke-linecap="round" stroke-linejoin="round"/>
<path d="M14.7698 26.2849H18.3498" stroke="#00AEEF" stroke-width="1.5" stroke-miterlimit="10" stroke-linecap="round" stroke-linejoin="round"/>
<path d="M25.2351 15.9221V19.3764" stroke="#00AEEF" stroke-width="1.5" stroke-miterlimit="10" stroke-linecap="round" stroke-linejoin="round"/>
<path d="M23.9956 22.416L21.3794 24.9031" stroke="#00AEEF" stroke-width="1.5" stroke-miterlimit="10" stroke-linecap="round" stroke-linejoin="round"/>
<path d="M11.7409 10.5334L9.26245 13.0205" stroke="#00AEEF" stroke-width="1.5" stroke-miterlimit="10" stroke-linecap="round" stroke-linejoin="round"/>
<path d="M7.88525 15.9221V19.3764" stroke="#00AEEF" stroke-width="1.5" stroke-miterlimit="10" stroke-linecap="round" stroke-linejoin="round"/>
<path d="M21.2422 10.3955L23.8584 12.8826" stroke="#00AEEF" stroke-width="1.5" stroke-miterlimit="10" stroke-linecap="round" stroke-linejoin="round"/>
<path d="M9.12427 22.416L11.6028 24.9031" stroke="#00AEEF" stroke-width="1.5" stroke-miterlimit="10" stroke-linecap="round" stroke-linejoin="round"/>
<path d="M13.9441 20.3435L10.5017 23.6596" stroke="#00AEEF" stroke-width="1.5" stroke-miterlimit="10" stroke-linecap="round" stroke-linejoin="round"/>
<path d="M22.6191 11.9153L19.1768 15.2313" stroke="#00AEEF" stroke-width="1.5" stroke-miterlimit="10" stroke-linecap="round" stroke-linejoin="round"/>
<path d="M19.1768 20.3435L22.6191 23.6596" stroke="#00AEEF" stroke-width="1.5" stroke-miterlimit="10" stroke-linecap="round" stroke-linejoin="round"/>
<path d="M13.9441 15.2313L10.5017 11.9153" stroke="#00AEEF" stroke-width="1.5" stroke-miterlimit="10" stroke-linecap="round" stroke-linejoin="round"/>
<path d="M16.5608 26.1467V21.449" stroke="#00AEEF" stroke-width="1.5" stroke-miterlimit="10" stroke-linecap="round" stroke-linejoin="round"/>
<path d="M16.5608 14.126V9.42822" stroke="#00AEEF" stroke-width="1.5" stroke-miterlimit="10" stroke-linecap="round" stroke-linejoin="round"/>
<path d="M25.0971 17.7183H20.2778" stroke="#00AEEF" stroke-width="1.5" stroke-miterlimit="10" stroke-linecap="round" stroke-linejoin="round"/>
<path d="M12.8425 17.7183H8.02319" stroke="#00AEEF" stroke-width="1.5" stroke-miterlimit="10" stroke-linecap="round" stroke-linejoin="round"/>
<path d="M16.5603 21.5871C18.6135 21.5871 20.278 19.9169 20.278 17.8565C20.278 15.7962 18.6135 14.126 16.5603 14.126C14.507 14.126 12.8425 15.7962 12.8425 17.8565C12.8425 19.9169 14.507 21.5871 16.5603 21.5871Z" stroke="#00AEEF" stroke-width="1.5" stroke-miterlimit="10" stroke-linecap="round" stroke-linejoin="round"/>
<path d="M16.5595 68.4266C17.248 68.2884 18.0741 68.1503 18.7626 68.1503H71.224C76.594 68.1503 81.0002 72.4335 81.0002 77.6839V79.6183C81.0002 80.3092 80.3117 81 79.6233 81H10.501C9.6748 81 9.12402 80.4473 9.12402 79.6183V77.6839C9.12402 75.3351 9.95019 73.2625 11.3271 71.6045" stroke="#00AEEF" stroke-width="1.5" stroke-miterlimit="10" stroke-linecap="round" stroke-linejoin="round"/>
<path d="M57.8682 6.11226L58.1436 5.14508C58.2813 4.73057 58.1436 4.45423 58.0059 4.45423L42.8596 1C42.7219 1 42.4465 1.27634 42.4465 1.55268L42.1711 2.51986C41.4826 5.00691 42.0334 7.21762 43.1349 7.49395L54.5635 10.1192C55.8028 10.3955 57.3174 8.59931 57.8682 6.11226Z" stroke="#00AEEF" stroke-width="1.5" stroke-miterlimit="10" stroke-linecap="round" stroke-linejoin="round"/>
<path d="M50.4319 37.4767L49.4681 40.7927C49.055 42.3126 47.5404 43.1416 46.0257 42.7271L33.2202 39.411C31.7056 38.9965 30.8794 37.4767 31.2925 36.095L37.6264 13.1589C38.0395 11.639 39.5541 10.81 41.0688 11.2245L43.5473 11.9153L44.9242 12.3299L51.5335 14.1261L53.7366 14.8169C55.2512 15.2314 56.0774 16.7513 55.6643 18.133L54.7005 21.5872" stroke="#00AEEF" stroke-width="1.5" stroke-miterlimit="10" stroke-linecap="round" stroke-linejoin="round"/>
<path d="M43.5476 12.0535L44.5115 7.77026L52.7731 9.70463L51.5339 14.2642L43.5476 12.0535Z" stroke="#00AEEF" stroke-width="1.5" stroke-miterlimit="10" stroke-linecap="round" stroke-linejoin="round"/>
<path d="M34.1846 44.247L35.1484 39.9637L43.5478 42.1745L42.1708 46.4577L34.1846 44.247Z" stroke="#00AEEF" stroke-width="1.5" stroke-miterlimit="10" stroke-linecap="round" stroke-linejoin="round"/>
<path d="M35.2856 47.1486L35.8364 44.7997L40.518 46.0432L39.8295 48.3921L35.2856 47.1486Z" stroke="#00AEEF" stroke-width="1.5" stroke-miterlimit="10" stroke-linecap="round" stroke-linejoin="round"/>
<path d="M66.6801 68.1503V40.6546C66.6801 37.0622 63.6508 34.0225 59.9331 34.0225" stroke="#00AEEF" stroke-width="1.5" stroke-miterlimit="10" stroke-linecap="round" stroke-linejoin="round"/>
<path d="M76.8696 35.5422C77.0078 36.2331 77.0078 36.7858 77.0078 37.4766V69.9464" stroke="#00AEEF" stroke-width="1.5" stroke-miterlimit="10" stroke-linecap="round" stroke-linejoin="round"/>
<path d="M58.8318 23.936H62.9626C67.6442 23.936 71.9127 26.2849 74.3912 29.7391" stroke="#00AEEF" stroke-width="1.5" stroke-miterlimit="10" stroke-linecap="round" stroke-linejoin="round"/>
<path d="M66.6802 61.2418H48.9177V58.3402H24.5459V64.0051H48.9177V61.2418H66.6802Z" stroke="#00AEEF" stroke-width="1.5" stroke-miterlimit="10" stroke-linecap="round" stroke-linejoin="round"/>
</svg>
