<svg width="18" height="18" viewBox="0 0 18 18" fill="none" xmlns="http://www.w3.org/2000/svg">
<path d="M8.38252 15.1938C6.17677 13.8888 4.26112 12.1288 3.0307 9.86883C2.06537 8.09383 1.53018 6.18883 2.07537 4.13883C2.35046 3.07383 2.90065 2.16883 3.69592 1.41883C4.07105 1.05883 4.63124 0.803829 5.35649 1.19883C6.46187 1.80383 7.29715 2.66883 7.90736 3.75383C8.24748 4.35883 8.05741 5.15383 7.48221 5.48883C6.89201 5.83383 6.71195 6.40383 6.60191 6.98883C6.40185 8.05883 6.88701 8.95383 7.53723 9.74383C8.19246 10.5388 9.01274 11.1438 10.0431 11.3588C10.8234 11.5238 11.5736 11.4288 12.1738 10.8138C12.3289 10.6538 12.5039 10.5138 12.639 10.3438C13.0341 9.83883 13.8944 9.80883 14.4346 10.1688C15.4099 10.8238 16.2652 11.5888 16.8154 12.6388C17.1505 13.2838 17.0355 14.0138 16.4203 14.4088C15.9501 14.7088 15.62 15.1588 15.1148 15.4138C13.9194 16.0188 12.669 16.1938 11.3585 16.0388C11.1435 16.0138 10.9334 15.9688 10.7183 15.9338" stroke="#00AEEF" stroke-miterlimit="10" stroke-linecap="round" stroke-linejoin="round"/>
<path d="M1 15.4028C1.36512 16.5778 2.71058 17.0728 3.6359 16.4178C4.12607 16.0728 4.46618 15.7128 4.61623 15.1028C4.83631 14.1928 4.34114 13.4428 3.72593 13.5828C3.15574 13.7128 2.88064 14.3028 3.08071 15.1478C3.21075 15.6928 3.61589 16.0278 3.68592 16.2978" stroke="#00AEEF" stroke-miterlimit="10" stroke-linecap="round" stroke-linejoin="round"/>
<path d="M8.38307 15.1948C8.27303 15.8148 7.83788 16.1348 7.44275 16.4148C6.53744 17.0498 5.5621 17.1698 4.54676 16.7748C4.31668 16.6848 4.13162 16.5498 3.97656 16.3448" stroke="#00AEEF" stroke-miterlimit="10" stroke-linecap="round" stroke-linejoin="round"/>
<path d="M4.58618 2.85889C5.38145 3.47389 6.04168 4.21889 6.63688 5.02389C6.79193 5.23389 6.977 5.42389 7.14706 5.61889" stroke="#00AEEF" stroke-miterlimit="10" stroke-linecap="round" stroke-linejoin="round"/>
<path d="M13.625 11.9839C14.1302 12.1789 14.4403 12.5839 14.7804 12.9789C15.2305 13.4989 15.6757 14.0189 16.0108 14.6239" stroke="#00AEEF" stroke-miterlimit="10" stroke-linecap="round" stroke-linejoin="round"/>
</svg>
