<svg width="58" height="58" viewBox="0 0 58 58" fill="none" xmlns="http://www.w3.org/2000/svg">
<path d="M6.57288 32.3795C6.17266 32.9772 5.47228 33.0768 4.87196 33.1764C2.27056 33.5749 -0.13073 36.0653 1.57018 39.6516C2.17051 40.847 2.97094 41.9428 3.67132 43.2378C5.07207 45.8278 5.77245 48.5175 5.67239 51.506C5.67239 53.0003 5.67239 54.4945 5.67239 55.9888C5.67239 56.6861 5.8725 57.0846 6.67293 56.9849C7.37331 56.8853 8.07368 56.8853 8.67401 56.9849C9.67454 57.0846 9.67454 56.5865 9.67454 55.8892C9.67454 52.801 9.67454 49.7129 9.67454 46.6248C9.67454 45.0309 9.7746 43.437 10.3749 41.8431C11.1754 39.5519 12.2759 37.46 13.9769 35.6669C15.5777 34.073 15.4777 31.8814 13.8768 30.4868C12.0758 28.9925 10.1748 29.0921 8.57395 30.7856C8.07368 31.1841 7.77352 32.0807 6.77298 32.1803" stroke="#00AEEF" stroke-width="1.5" stroke-miterlimit="10" stroke-linecap="round" stroke-linejoin="round"/>
<path d="M47.1948 40.9466C47.495 41.1458 47.6951 41.4447 47.7951 41.8431C48.1954 43.0385 48.2954 44.3336 48.3955 45.6286C48.3955 49.0156 48.3955 52.4026 48.3955 55.7895C48.3955 56.5865 48.6956 56.9849 49.4961 56.8853C50.0964 56.8853 50.7968 56.8853 51.3971 56.8853C52.1975 56.8853 52.3976 56.5865 52.3976 55.8892C52.3976 54.1957 52.3976 52.5022 52.3976 50.9083C52.3976 48.4179 52.9979 45.9274 54.0985 43.6362C54.4988 42.9389 54.899 42.2416 55.2992 41.5443" stroke="#00AEEF" stroke-width="1.5" stroke-miterlimit="10" stroke-linecap="round" stroke-linejoin="round"/>
<path d="M11.0752 40.6477C12.2758 41.7435 13.1763 43.1382 14.477 44.1343C16.278 45.4294 18.179 46.0271 20.4803 45.1305C21.5808 44.732 22.3813 43.9351 22.9816 43.1382C25.0827 39.8508 30.0854 39.6516 33.087 41.1458C33.7874 41.5443 34.3877 42.142 34.888 42.8393C36.0886 44.6324 37.7896 45.7282 40.0908 45.6286C41.4916 45.529 42.5921 44.8317 43.6927 44.0347C44.9934 43.1382 45.6938 41.8431 46.9945 40.9466C47.3947 40.6477 47.1946 40.1497 46.9945 39.7512C46.2941 38.1573 45.1935 36.8623 44.093 35.5673C42.6922 33.8738 42.6922 31.5826 44.2931 30.3872C46.2941 28.8929 48.6954 29.5902 49.696 30.9849C50.6965 32.2799 51.9972 32.8776 53.5981 33.2761C55.4991 33.7742 56.6997 34.9696 56.9999 36.5634" stroke="#00AEEF" stroke-width="1.5" stroke-miterlimit="10" stroke-linecap="round" stroke-linejoin="round"/>
<path d="M3.17108 9.76636C2.57075 12.1572 2.4707 14.6476 2.67081 17.0384C2.97097 21.9197 4.27167 26.6017 6.07264 31.0844C6.27274 31.4829 6.47285 31.8814 6.67296 32.1802" stroke="#00AEEF" stroke-width="1.5" stroke-miterlimit="10" stroke-linecap="round" stroke-linejoin="round"/>
<path d="M4.77197 6.57859C7.17326 3.6897 11.5756 2.99238 14.8774 5.58242C16.5783 6.87745 17.879 8.57094 19.1797 10.1648C20.6805 11.9579 21.7811 14.0499 23.6821 15.5441C24.1824 15.9426 24.8828 16.1418 25.283 16.6399C26.7838 18.1342 28.4847 18.433 30.4858 17.935C31.3863 17.6361 31.9866 16.9388 32.787 16.6399C34.488 15.9426 35.4885 14.548 36.389 13.2529C38.29 10.7625 40.091 8.17247 42.4923 6.08051C45.9941 2.79314 51.1969 3.78931 53.4982 7.07668C54.7989 8.96941 55.2991 11.161 55.3992 13.4522C55.6994 17.6361 54.999 21.7204 53.7983 25.7051C53.098 27.9963 52.4976 30.2875 51.297 32.3794" stroke="#00AEEF" stroke-width="1.5" stroke-miterlimit="10" stroke-linecap="round" stroke-linejoin="round"/>
<path d="M36.9891 21.3218C38.2898 21.8199 39.4904 22.6168 39.7906 24.0115C40.0908 25.2069 39.8907 26.5019 39.3904 27.5977C38.1897 29.9885 36.6889 31.9808 34.0875 33.3755C32.3866 34.272 30.7858 35.069 28.8847 34.9694C27.0838 34.8697 25.4829 34.272 23.882 33.2759C22.0811 32.1801 20.6803 30.6858 19.5797 29.0919C18.9794 28.1954 18.5792 27.1992 18.3791 26.1034C18.0789 23.7126 18.5792 22.8161 20.6803 21.6207C20.8804 21.521 21.0805 21.4214 21.2806 21.4214" stroke="#00AEEF" stroke-width="1.5" stroke-miterlimit="10" stroke-linecap="round" stroke-linejoin="round"/>
<path d="M36.5887 13.5519C38.7899 14.2492 39.1901 15.345 38.3897 17.935C37.7894 19.7281 37.089 21.322 35.5882 22.5174C34.1875 23.6132 33.6872 25.1075 33.7872 26.8009C33.8873 28.4944 33.7872 30.1879 33.7872 31.8814C33.7872 32.3795 33.7872 32.778 33.9873 33.1764" stroke="#00AEEF" stroke-width="1.5" stroke-miterlimit="10" stroke-linecap="round" stroke-linejoin="round"/>
<path d="M21.381 13.5519C19.58 14.1496 18.9797 15.1457 19.4799 17.1381C19.9802 19.0308 20.5805 20.8239 22.1814 22.1189C23.4821 23.2147 24.0824 24.6094 24.0824 26.3029C24.0824 28.1956 24.0824 30.1879 24.0824 32.0807C24.0824 32.3795 23.9824 32.6784 23.8823 32.9772" stroke="#00AEEF" stroke-width="1.5" stroke-miterlimit="10" stroke-linecap="round" stroke-linejoin="round"/>
<path d="M17.2788 38.5558C17.3788 39.5519 17.779 40.4485 18.3794 41.2454C18.7796 41.7435 19.2798 41.6439 19.58 41.345C20.3804 40.6477 21.0808 39.9504 21.7812 39.2531C22.0813 38.9542 22.1814 38.3565 21.7812 38.0577C21.0808 37.46 20.3804 36.9619 19.3799 36.9619C18.0792 36.8623 17.679 36.9619 17.1787 38.5558" stroke="#00AEEF" stroke-width="1.5" stroke-miterlimit="10" stroke-linecap="round" stroke-linejoin="round"/>
<path d="M25.8833 5.28358C27.8844 5.28358 29.9855 5.28358 31.9866 5.28358" stroke="#00AEEF" stroke-width="1.5" stroke-miterlimit="10" stroke-linecap="round" stroke-linejoin="round"/>
<path d="M25.8833 9.56717C27.8844 9.56717 29.9855 9.56717 31.9866 9.56717" stroke="#00AEEF" stroke-width="1.5" stroke-miterlimit="10" stroke-linecap="round" stroke-linejoin="round"/>
<path d="M25.8833 13.7511C27.8844 13.7511 29.9855 13.7511 31.9866 13.7511" stroke="#00AEEF" stroke-width="1.5" stroke-miterlimit="10" stroke-linecap="round" stroke-linejoin="round"/>
<path d="M38.1897 36.8622C37.5894 37.161 36.889 37.2606 36.3888 37.7587C35.7884 38.2568 35.5883 38.6553 36.1886 39.253C36.889 39.9503 37.5894 40.6476 38.2898 41.345C38.69 41.7434 38.9902 41.6438 39.2903 41.345C39.8906 40.6476 40.3909 39.9503 40.491 39.0538C40.6911 37.5595 39.9907 36.9618 38.2898 36.9618" stroke="#00AEEF" stroke-width="1.5" stroke-miterlimit="10" stroke-linecap="round" stroke-linejoin="round"/>
<path d="M32.1865 16.4407V1.89655C32.1865 1.39847 31.7863 1 31.286 1H26.3834C25.8831 1 25.4829 1.39847 25.4829 1.89655V16.4407" stroke="#00AEEF" stroke-width="1.5" stroke-miterlimit="10" stroke-linecap="round" stroke-linejoin="round"/>
</svg>
