<svg width="17" height="17" viewBox="0 0 17 17" fill="none" xmlns="http://www.w3.org/2000/svg">
<path d="M16.5314 6.17466V6.53043C16.5077 6.81505 16.3357 7.00479 16.1341 7.18267C15.553 7.68075 14.9838 8.18476 14.4086 8.68876C14.0173 9.02674 13.6378 9.37065 13.2464 9.70863C13.1101 9.82722 12.9737 9.95767 12.8314 10.0703C12.7424 10.1415 12.7069 10.2186 12.7365 10.3372C13.0448 11.6594 13.3413 12.9876 13.6437 14.3158C13.6852 14.4996 13.7267 14.6835 13.7623 14.8673C13.8275 15.2408 13.7149 15.5551 13.4243 15.7863C13.1101 16.0354 12.7484 16.071 12.3926 15.8812C11.9064 15.6203 11.438 15.3179 10.9636 15.0333C10.1216 14.5293 9.26777 14.0312 8.43171 13.5154C8.30719 13.4383 8.21232 13.4442 8.09373 13.5154C6.82483 14.2862 5.54406 15.0392 4.27515 15.8041C3.92531 16.0176 3.57547 16.0591 3.20785 15.8516C2.91137 15.6855 2.6564 15.2764 2.78092 14.7428C3.10112 13.3908 3.39759 12.0271 3.71185 10.6692C3.83044 10.1593 3.83044 10.1593 3.43317 9.81536C2.83429 9.30543 2.24134 8.7777 1.64839 8.25591C1.17997 7.84678 0.711537 7.43171 0.243108 7.02258C0.0711537 6.87434 0.0296474 6.6846 0 6.483V6.12723C0.0415063 5.71216 0.284615 5.48092 0.670031 5.38604C0.877562 5.33268 1.09695 5.33268 1.31041 5.31489C1.87964 5.26152 2.4548 5.20816 3.02403 5.16072C3.56361 5.11922 4.1032 5.05992 4.64278 5.01842C4.89182 5.00063 5.13492 4.97098 5.37803 4.95319C5.47291 4.94726 5.5322 4.8939 5.56778 4.80496C5.94726 3.92146 6.32675 3.03204 6.70031 2.14855C6.92563 1.6149 7.14502 1.07532 7.38812 0.547592C7.56008 0.197753 7.86248 -0.00384912 8.27755 0.00208036C8.68075 0.00800983 8.9713 0.209612 9.13732 0.577239C9.52274 1.44887 9.89036 2.32643 10.2639 3.204C10.4952 3.74358 10.7264 4.28316 10.9577 4.82274C10.9992 4.91761 11.0644 4.96505 11.1652 4.97098C11.6929 5.00656 12.2147 5.05992 12.7365 5.10736C13.3828 5.16665 14.0291 5.22002 14.6755 5.28524C15.049 5.32082 15.4226 5.34454 15.7961 5.39197C16.1993 5.43941 16.4721 5.71216 16.5136 6.11537C16.5136 6.13909 16.5136 6.15688 16.5314 6.17466Z" fill="#FEC007"/>
</svg>
