<svg width="58" height="58" viewBox="0 0 58 58" fill="none" xmlns="http://www.w3.org/2000/svg">
<path d="M30.1993 19.8232C30.9172 17.9171 30.1993 16.3683 29.4815 14.5813C27.8064 10.5307 27.4475 6.36104 27.8064 2.07221C27.926 1.3574 28.1653 1 28.8832 1C30.1993 1 31.3958 1 32.7119 1C33.9084 1 35.1049 1 36.1817 1C37.1389 1 37.4978 1.3574 37.4978 2.31048C37.3782 4.93143 37.6175 7.55238 38.3354 10.0542C38.455 10.6499 38.6943 10.769 39.2925 10.769C47.1892 10.0542 54.8467 15.5344 56.5217 23.3972C58.3164 31.6175 55.2056 43.5309 44.6767 49.1302" stroke="#00AEEF" stroke-width="1.5" stroke-miterlimit="10" stroke-linecap="round"/>
<path d="M41.0875 50.7982C38.4552 51.7512 35.823 52.2278 33.0711 52.3469C32.7122 52.3469 32.2336 52.3469 31.8746 52.3469C26.3709 52.2278 21.4653 50.9173 17.3973 47.105C16.0812 45.7945 15.0044 44.3649 14.2865 42.697C14.0472 42.1014 13.6883 41.3866 12.8507 41.3866C12.1329 41.3866 11.7739 41.9822 11.415 42.5779C10.0988 45.0797 9.62026 47.7007 9.26132 50.4408C9.02202 51.513 9.02202 52.5852 8.78273 53.6574C8.42379 55.6827 6.62908 57.1123 4.71472 56.9931C2.68072 56.874 0.886013 55.2061 1.00566 53.1808C1.12531 49.6068 1.84319 46.1519 2.92002 42.8162" stroke="#00AEEF" stroke-width="1.5" stroke-miterlimit="10" stroke-linecap="round"/>
<path d="M3.87769 39.8379C6.03134 34.9534 9.86005 32.5707 15.3638 33.5238C16.9192 33.7621 18.4746 34.3577 19.9104 35.0725C21.4658 35.9065 23.1409 36.5022 24.8159 36.7404C27.2089 37.0978 28.7643 36.0256 29.6018 33.8812C30.2001 32.0942 30.3197 30.188 30.2001 28.2819C30.0804 26.7331 29.9608 25.1844 29.9608 23.7548" stroke="#00AEEF" stroke-width="1.5" stroke-miterlimit="10" stroke-linecap="round"/>
</svg>
