<svg width="42" height="39" viewBox="0 0 42 39" fill="none" xmlns="http://www.w3.org/2000/svg">
<path d="M38.5 18C38.5 27.665 30.665 35.5 21 35.5C11.335 35.5 3.5 27.665 3.5 18C3.5 8.33502 11.335 0.5 21 0.5C30.665 0.5 38.5 8.33502 38.5 18Z" fill="white" stroke="#E9E9E9"/>
<g filter="url(#filter0_d_49_3369)">
<path d="M31.007 15.3556C31.007 12.9704 29.0366 11 26.6514 11H15.3477C12.9626 11 10.9922 12.9704 10.9922 15.3556V20.6444C10.9922 23.0296 12.9626 25 15.3477 25H26.6514C29.0366 25 31.007 23.0296 31.007 20.6444V15.3556ZM24.37 18.363L19.2885 20.8519C19.0811 20.9556 18.4589 20.8519 18.4589 20.5407V15.4593C18.4589 14.8319 19.5861 15.4101 20.1399 15.7047L24.1626 17.8444C24.37 17.9481 24.5774 18.2593 24.37 18.363Z" fill="#001E29"/>
</g>
<defs>
<filter id="filter0_d_49_3369" x="0.992188" y="5" width="40.0149" height="34" filterUnits="userSpaceOnUse" color-interpolation-filters="sRGB">
<feFlood flood-opacity="0" result="BackgroundImageFix"/>
<feColorMatrix in="SourceAlpha" type="matrix" values="0 0 0 0 0 0 0 0 0 0 0 0 0 0 0 0 0 0 127 0" result="hardAlpha"/>
<feOffset dy="4"/>
<feGaussianBlur stdDeviation="5"/>
<feComposite in2="hardAlpha" operator="out"/>
<feColorMatrix type="matrix" values="0 0 0 0 0.466667 0 0 0 0 0.466667 0 0 0 0 0.466667 0 0 0 0.25 0"/>
<feBlend mode="normal" in2="BackgroundImageFix" result="effect1_dropShadow_49_3369"/>
<feBlend mode="normal" in="SourceGraphic" in2="effect1_dropShadow_49_3369" result="shape"/>
</filter>
</defs>
</svg>
